# Blender v2.77 (sub 0) OBJ File: 'dev1.blend'
# www.blender.org
mtllib dev1.mtl
o hallway2_Mesh.014
v -1.854221 0.628288 -1.250000
v -1.192428 1.195090 -1.250000
v 0.894414 1.217895 -1.212826
v -0.931588 -1.215980 -1.250000
v -1.192428 -1.183177 -1.250000
v -1.854221 -0.616375 -1.250000
v 1.854221 0.628288 -1.250000
v 1.192428 1.195090 -1.250000
v 0.874072 1.217895 -1.192484
v 0.931588 -1.215980 -1.250000
v 1.192428 -1.183177 -1.250000
v 1.854221 -0.616375 -1.250000
v -1.854221 0.628288 1.250000
v -1.192428 1.195090 1.250000
v 0.874072 1.217895 1.192484
v -0.931588 -1.215980 1.250000
v -1.192428 -1.183177 1.250000
v -1.854221 -0.616374 1.250000
v 1.854221 0.628288 1.250000
v 1.192428 1.195090 1.250000
v 0.894414 1.217895 1.212825
v 0.931588 -1.215980 1.250000
v 1.192428 -1.183177 1.250000
v 1.854221 -0.616374 1.250000
v -2.500000 -1.250000 -1.250000
v -2.500000 1.250000 -1.250000
v 2.500000 -1.250000 -1.250000
v 2.500000 1.250000 -1.250000
v -2.500000 -1.250000 1.250000
v -2.500000 1.250000 1.250000
v 2.500000 -1.250000 1.250000
v 2.500000 1.250000 1.250000
v 1.801776 0.597171 -1.187500
v 1.801776 -0.585258 -1.187500
v 1.801776 0.597171 1.187500
v 1.801776 -0.585258 1.187500
v -1.801776 0.597171 -1.187500
v -1.801776 0.597171 1.187500
v -1.801776 -0.585258 1.187500
v -1.801776 -0.585258 -1.187500
v -1.787288 0.625005 -1.154939
v -1.175823 1.148703 -1.154940
v -1.175823 -1.136790 -1.154939
v -1.787288 -0.613092 -1.154939
v 1.787288 0.625005 -1.154939
v 1.175823 1.148703 -1.154940
v 1.175823 -1.136790 -1.154939
v 1.787288 -0.613092 -1.154939
v -1.787288 0.625005 1.154939
v -1.175823 1.148703 1.154939
v -1.175823 -1.136790 1.154940
v -1.787288 -0.613092 1.154939
v 1.787288 0.625005 1.154939
v 1.175823 1.148703 1.154939
v 1.175823 -1.136790 1.154940
v 1.787288 -0.613092 1.154939
v 0.931588 1.227893 1.250000
v 0.931588 1.227893 -1.250000
v -0.931588 1.227893 1.250000
v -0.931588 1.227893 -1.250000
v -0.894414 1.227893 -1.212826
v -0.874072 1.227893 -1.192484
v 0.874072 1.227893 -1.192484
v 0.894414 1.227893 -1.212826
v -0.874072 1.227893 1.192484
v -0.894414 1.227893 1.212825
v 0.894414 1.227893 1.212825
v 0.874072 1.227893 1.192484
v -0.874072 1.217895 1.192484
v -0.894414 1.217895 1.212825
v -0.894414 1.217895 -1.212826
v -0.874072 1.217895 -1.192484
vt 0.3788 0.9910
vt 0.4244 0.5540
vt 0.4244 0.9910
vt 0.0075 0.5540
vt 0.0531 0.9910
vt 0.0075 0.9910
vt 0.0531 0.5540
vt 0.3788 0.5540
vt 0.5841 0.5484
vt 0.5382 0.9883
vt 0.5382 0.5484
vt 0.5111 0.9883
vt 0.4652 0.5484
vt 0.5111 0.5484
vt 0.4222 0.0482
vt 0.6341 0.0438
vt 0.6298 0.0482
vt 0.4222 0.3296
vt 0.6341 0.3339
vt 0.4179 0.3339
vt 0.6298 0.3296
vt 0.4179 0.0438
vt 0.5841 0.9883
vt 0.4652 0.9883
vt 0.7154 0.9803
vt 0.7097 0.7085
vt 0.7174 0.6962
vt 0.6121 0.4157
vt 0.6177 0.6800
vt 0.6121 0.6923
vt 0.6121 0.9756
vt 0.6179 0.7115
vt 0.6177 0.9635
vt 0.6121 0.6990
vt 0.0853 0.3634
vt 0.1563 0.2924
vt 0.1563 0.3634
vt 0.0097 0.3634
vt 0.0807 0.2924
vt 0.0807 0.3634
vt 0.0728 0.1568
vt 0.0396 0.1851
vt 0.0073 0.1534
vt 0.0741 0.1428
vt 0.0086 0.1456
vt 0.0409 0.1144
vt 0.1544 0.5171
vt 0.0123 0.4460
vt 0.1544 0.4460
vt 0.1544 0.4390
vt 0.0123 0.3680
vt 0.1544 0.3680
vt 0.0073 0.2786
vt 0.0396 0.2475
vt 0.2578 0.2786
vt 0.2254 0.1851
vt 0.2578 0.1534
vt 0.0859 0.1551
vt 0.1792 0.1551
vt 0.1923 0.1568
vt 0.0409 0.0521
vt 0.1923 0.2759
vt 0.1792 0.2775
vt 0.0859 0.2775
vt 0.0728 0.2759
vt 0.2254 0.2475
vt 0.7170 0.6952
vt 0.8608 0.6833
vt 0.8681 0.6928
vt 0.7158 0.4111
vt 0.7240 0.6851
vt 0.1936 0.1428
vt 0.2591 0.1456
vt 0.1805 0.1444
vt 0.0872 0.1444
vt 0.2267 0.1144
vt 0.0741 0.0237
vt 0.0086 0.0203
vt 0.0872 0.0220
vt 0.1805 0.0220
vt 0.2591 0.0203
vt 0.1936 0.0237
vt 0.2267 0.0521
vt 0.8685 0.6954
vt 0.7246 0.7057
vt 0.8666 0.9795
vt 0.8614 0.7054
vt 0.8593 0.9700
vt 0.8669 0.4086
vt 0.7231 0.4205
vt 0.8599 0.4187
vt 0.7225 0.9702
vt 0.7078 0.9679
vt 0.8742 0.9671
vt 0.9718 0.6882
vt 0.9662 0.4239
vt 0.9718 0.4116
vt 0.7083 0.4234
vt 0.9718 0.7000
vt 0.8762 0.7078
vt 0.8756 0.6804
vt 0.8747 0.4210
vt 0.9660 0.6759
vt 0.9718 0.9766
vt 0.9660 0.9641
vt 0.9663 0.7121
vt 0.6179 0.4280
vt 0.7092 0.6828
vt 0.3382 0.3285
vt 0.3406 0.4777
vt 0.3382 0.4749
vt 0.2067 0.3349
vt 0.3360 0.3315
vt 0.3351 0.4728
vt 0.2036 0.4792
vt 0.2058 0.4763
vt 0.3440 0.3228
vt 0.2011 0.3301
vt 0.1977 0.3275
vt 0.2006 0.4817
vt 0.3412 0.3261
vt 0.2036 0.3329
vt 0.1977 0.4850
vt 0.3440 0.4803
vt 0.0853 0.2924
vt 0.0097 0.2924
vt 0.0123 0.5171
vt 0.0123 0.4390
vt 0.9474 0.3819
vt 0.6855 0.0245
vt 0.9474 0.0245
vt 0.6855 0.3819
vn -0.1248 0.9922 -0.0000
vn 0.1248 0.9922 -0.0000
vn 0.0000 1.0000 -0.0000
vn -0.1248 -0.9922 0.0000
vn 0.1248 -0.9922 0.0000
vn -0.0000 -1.0000 -0.0000
vn 0.0490 -0.9988 0.0000
vn 0.9415 -0.3370 0.0000
vn -0.9415 0.3370 0.0000
vn -0.5855 -0.6836 -0.4358
vn 1.0000 -0.0000 0.0000
vn -1.0000 -0.0000 0.0000
vn 0.0000 0.0000 1.0000
vn -0.0000 -0.0000 -1.0000
vn 0.7660 0.0000 0.6428
vn 0.5103 -0.8600 0.0000
vn -0.7660 0.0000 -0.6428
vn -0.5103 -0.8600 0.0000
vn -0.7660 0.0000 0.6428
vn 0.7660 0.0000 -0.6428
vn 0.5103 0.8600 -0.0000
vn -0.5103 0.8600 -0.0000
vn -0.5855 -0.6836 0.4358
vn 0.0490 0.9988 -0.0000
vn 0.9415 0.3370 0.0000
vn -0.0490 0.9988 -0.0000
vn -0.5855 0.6836 -0.4358
vn -0.0490 -0.9988 0.0000
vn 0.5855 -0.6836 -0.4358
vn 0.5855 -0.6836 0.4358
vn -0.5855 0.6836 0.4358
vn -0.9415 -0.3370 0.0000
vn 0.5855 0.6836 -0.4358
vn 0.5855 0.6836 0.4358
vn -0.6505 -0.7595 0.0000
vn 0.6505 -0.7595 0.0000
vn -0.6505 0.7595 -0.0000
vn 0.6505 0.7595 -0.0000
usemtl floor
s 1
f 10/1/1 23/2/1 11/3/1
f 17/4/2 4/5/2 5/6/2
f 10/1/3 16/7/3 22/8/3
f 10/1/1 22/8/1 23/2/1
f 17/4/2 16/7/2 4/5/2
f 10/1/3 4/5/3 16/7/3
usemtl roof
f 8/9/4 57/10/4 58/11/4
f 59/12/5 2/13/5 60/14/5
f 61/15/6 58/16/6 64/17/6
f 66/18/6 57/19/6 59/20/6
f 64/17/6 57/19/6 67/21/6
f 61/15/6 59/20/6 60/22/6
f 8/9/4 20/23/4 57/10/4
f 59/12/5 14/24/5 2/13/5
f 61/15/6 60/22/6 58/16/6
f 66/18/6 67/21/6 57/19/6
f 64/17/6 58/16/6 57/19/6
f 61/15/6 66/18/6 59/20/6
usemtl colorable
f 19/25/7 45/26/7 7/27/7
f 5/28/8 51/29/8 17/30/8
f 20/31/9 46/32/9 54/33/9
f 8/34/10 45/26/10 46/32/10
f 32/35/11 27/36/11 28/37/11
f 26/38/12 29/39/12 30/40/12
f 17/41/13 18/42/13 29/43/13
f 8/44/14 28/45/14 7/46/14
f 28/47/3 30/48/3 32/49/3
f 31/50/6 25/51/6 27/52/6
f 30/53/13 18/42/13 13/54/13
f 32/55/13 24/56/13 31/57/13
f 17/41/13 29/43/13 16/58/13
f 22/59/13 29/43/13 31/57/13
f 31/57/13 23/60/13 22/59/13
f 28/45/14 12/61/14 7/46/14
f 20/62/13 32/55/13 57/63/13
f 57/63/13 30/53/13 59/64/13
f 30/53/13 14/65/13 59/64/13
f 32/55/13 20/62/13 19/66/13
f 13/54/13 14/65/13 30/53/13
f 18/67/15 38/68/15 13/69/15
f 6/70/16 39/71/16 18/67/16
f 2/72/14 26/73/14 60/74/14
f 60/74/14 28/45/14 58/75/14
f 28/45/14 8/44/14 58/75/14
f 26/73/14 2/72/14 1/76/14
f 11/77/14 27/78/14 10/79/14
f 4/80/14 27/78/14 25/81/14
f 25/81/14 5/82/14 4/80/14
f 27/78/14 11/77/14 12/61/14
f 23/60/13 31/57/13 24/56/13
f 5/82/14 25/81/14 6/83/14
f 26/73/14 6/83/14 25/81/14
f 12/84/17 33/85/17 7/27/17
f 24/86/18 34/87/18 12/84/18
f 19/25/19 36/88/19 24/86/19
f 1/89/20 40/90/20 6/70/20
f 1/89/21 38/68/21 37/91/21
f 7/27/22 35/92/22 19/25/22
f 20/31/23 53/93/23 19/25/23
f 12/84/24 56/94/24 24/86/24
f 14/95/25 42/96/25 2/97/25
f 18/67/26 44/98/26 6/70/26
f 11/99/27 48/100/27 12/84/27
f 1/89/28 49/101/28 13/69/28
f 2/97/29 41/102/29 1/89/29
f 14/95/30 49/101/30 50/103/30
f 23/104/31 56/94/31 55/105/31
f 23/104/32 47/106/32 11/99/32
f 5/28/33 44/98/33 43/107/33
f 17/30/34 52/108/34 18/67/34
f 9/109/6 21/110/6 15/111/6
f 62/112/13 9/109/13 63/113/13
f 68/114/14 69/115/14 65/116/14
f 64/117/14 71/118/14 61/119/14
f 63/113/12 15/111/12 68/114/12
f 71/118/6 69/115/6 70/120/6
f 15/111/6 70/120/6 69/115/6
f 3/121/6 72/122/6 71/118/6
f 66/123/13 21/110/13 67/124/13
f 65/116/11 72/122/11 62/112/11
f 61/119/12 70/120/12 66/123/12
f 67/124/11 3/121/11 64/117/11
f 19/25/7 53/93/7 45/26/7
f 5/28/8 43/107/8 51/29/8
f 20/31/9 8/34/9 46/32/9
f 8/34/10 7/27/10 45/26/10
f 32/35/11 31/125/11 27/36/11
f 26/38/12 25/126/12 29/39/12
f 28/47/3 26/127/3 30/48/3
f 31/50/6 29/128/6 25/51/6
f 30/53/13 29/43/13 18/42/13
f 32/55/13 19/66/13 24/56/13
f 22/59/13 16/58/13 29/43/13
f 28/45/14 27/78/14 12/61/14
f 57/63/13 32/55/13 30/53/13
f 18/67/15 39/71/15 38/68/15
f 6/70/16 40/90/16 39/71/16
f 60/74/14 26/73/14 28/45/14
f 4/80/14 10/79/14 27/78/14
f 26/73/14 1/76/14 6/83/14
f 12/84/17 34/87/17 33/85/17
f 24/86/18 36/88/18 34/87/18
f 19/25/19 35/92/19 36/88/19
f 1/89/20 37/91/20 40/90/20
f 1/89/21 13/69/21 38/68/21
f 7/27/22 33/85/22 35/92/22
f 20/31/23 54/33/23 53/93/23
f 12/84/24 48/100/24 56/94/24
f 14/95/25 50/103/25 42/96/25
f 18/67/26 52/108/26 44/98/26
f 11/99/27 47/106/27 48/100/27
f 1/89/28 41/102/28 49/101/28
f 2/97/29 42/96/29 41/102/29
f 14/95/30 13/69/30 49/101/30
f 23/104/31 24/86/31 56/94/31
f 23/104/32 55/105/32 47/106/32
f 5/28/33 6/70/33 44/98/33
f 17/30/34 51/29/34 52/108/34
f 9/109/6 3/121/6 21/110/6
f 62/112/13 72/122/13 9/109/13
f 68/114/14 15/111/14 69/115/14
f 64/117/14 3/121/14 71/118/14
f 63/113/12 9/109/12 15/111/12
f 71/118/6 72/122/6 69/115/6
f 15/111/6 21/110/6 70/120/6
f 3/121/6 9/109/6 72/122/6
f 66/123/13 70/120/13 21/110/13
f 65/116/11 69/115/11 72/122/11
f 61/119/12 71/118/12 70/120/12
f 67/124/11 21/110/11 3/121/11
s 2
f 37/91/11 39/71/11 40/90/11
f 37/91/11 38/68/11 39/71/11
s 3
f 36/88/12 33/85/12 34/87/12
f 36/88/12 35/92/12 33/85/12
s 4
f 45/26/35 54/33/35 46/32/35
f 45/26/35 53/93/35 54/33/35
s 5
f 50/103/36 41/102/36 42/96/36
f 50/103/36 49/101/36 41/102/36
s 6
f 47/106/37 56/94/37 48/100/37
f 47/106/37 55/105/37 56/94/37
s 7
f 52/108/38 43/107/38 44/98/38
f 52/108/38 51/29/38 43/107/38
usemtl Emissive
s 1
f 68/129/6 62/130/6 63/131/6
f 68/129/6 65/132/6 62/130/6
