# Blender v2.77 (sub 0) OBJ File: 'dev1.blend'
# www.blender.org
mtllib dev1.mtl
o hallway1_Mesh.006
v -1.854221 0.628288 -1.250000
v -1.192428 1.195090 -1.250000
v -0.931588 1.227893 -1.250000
v -0.931588 -1.215980 -1.250000
v -1.192428 -1.183177 -1.250000
v -1.854221 -0.616375 -1.250000
v 1.854221 0.628288 -1.250000
v 1.192428 1.195090 -1.250000
v 0.931588 1.227893 -1.250000
v 0.931588 -1.215980 -1.250000
v 1.192428 -1.183177 -1.250000
v 1.854221 -0.616375 -1.250000
v -1.854221 0.628288 1.250000
v -1.192428 1.195090 1.250000
v -0.931588 1.227893 1.250000
v -0.931588 -1.215980 1.250000
v -1.192428 -1.183177 1.250000
v -1.854221 -0.616374 1.250000
v 1.854221 0.628288 1.250000
v 1.192428 1.195090 1.250000
v 0.931588 1.227893 1.250000
v 0.931588 -1.215980 1.250000
v 1.192428 -1.183177 1.250000
v 1.854221 -0.616374 1.250000
v -2.500000 -1.250000 -1.250000
v -2.500000 1.250000 -1.250000
v 2.500000 -1.250000 -1.250000
v 2.500000 1.250000 -1.250000
v -2.500000 -1.250000 1.250000
v -2.500000 1.250000 1.250000
v 2.500000 -1.250000 1.250000
v 2.500000 1.250000 1.250000
v 0.889913 1.187760 1.194081
v 0.889913 1.187760 -1.194081
v -0.889913 1.187760 1.194081
v -0.889913 1.187760 -1.194081
v 1.801776 0.597171 -1.187500
v 1.801776 -0.585258 -1.187500
v 1.801776 0.597171 1.187500
v 1.801776 -0.585258 1.187500
v -1.801776 0.597171 -1.187500
v -1.801776 0.597171 1.187500
v -1.801776 -0.585258 1.187500
v -1.801776 -0.585258 -1.187500
v -1.787288 0.625005 -1.154939
v -1.175823 1.148703 -1.154940
v -1.175823 -1.136790 -1.154939
v -1.787288 -0.613092 -1.154939
v 1.787288 0.625005 -1.154939
v 1.175823 1.148703 -1.154940
v 1.175823 -1.136790 -1.154939
v 1.787288 -0.613092 -1.154939
v -1.787288 0.625005 1.154939
v -1.175823 1.148703 1.154939
v -1.175823 -1.136790 1.154940
v -1.787288 -0.613092 1.154939
v 1.787288 0.625005 1.154939
v 1.175823 1.148703 1.154939
v 1.175823 -1.136790 1.154940
v 1.787288 -0.613092 1.154939
vt 0.3852 0.9902
vt 0.4314 0.5473
vt 0.4314 0.9902
vt 0.0088 0.5473
vt 0.0550 0.9902
vt 0.0088 0.9902
vt 0.0550 0.5473
vt 0.3852 0.5473
vt 0.5202 0.4853
vt 0.5157 0.2748
vt 0.5217 0.2652
vt 0.4437 0.0466
vt 0.4446 0.2514
vt 0.4402 0.2609
vt 0.4402 0.4817
vt 0.4447 0.2771
vt 0.4445 0.4723
vt 0.4402 0.2674
vt 0.0158 0.3748
vt 0.0848 0.3057
vt 0.0848 0.3748
vt 0.1545 0.3748
vt 0.0854 0.3057
vt 0.0854 0.3748
vt 0.0828 0.0292
vt 0.0515 0.0560
vt 0.0210 0.0261
vt 0.0779 0.2850
vt 0.0162 0.2876
vt 0.0467 0.2582
vt 0.1528 0.4515
vt 0.0147 0.3825
vt 0.1528 0.3825
vt 0.1528 0.5269
vt 0.0147 0.4579
vt 0.1528 0.4579
vt 0.0210 0.1441
vt 0.0515 0.1148
vt 0.2572 0.1441
vt 0.2267 0.0560
vt 0.2572 0.0261
vt 0.0951 0.0277
vt 0.1831 0.0277
vt 0.1954 0.0292
vt 0.0467 0.1995
vt 0.1954 0.1416
vt 0.1831 0.1431
vt 0.0951 0.1431
vt 0.0828 0.1416
vt 0.8847 0.4842
vt 0.8795 0.2709
vt 0.8847 0.2646
vt 0.2267 0.1148
vt 0.5214 0.2645
vt 0.6329 0.2571
vt 0.6384 0.2645
vt 0.5240 0.0444
vt 0.5269 0.2567
vt 0.1906 0.2850
vt 0.2523 0.2876
vt 0.1782 0.2866
vt 0.0902 0.2866
vt 0.2218 0.2582
vt 0.0779 0.1727
vt 0.0162 0.1695
vt 0.0902 0.1711
vt 0.1782 0.1711
vt 0.2523 0.1695
vt 0.1906 0.1727
vt 0.2218 0.1995
vt 0.7242 0.2722
vt 0.7189 0.2661
vt 0.7189 0.4857
vt 0.8794 0.4781
vt 0.7241 0.4794
vt 0.6388 0.2646
vt 0.5273 0.2726
vt 0.6373 0.4847
vt 0.6333 0.2724
vt 0.6317 0.4773
vt 0.6411 0.0444
vt 0.5296 0.0518
vt 0.6356 0.0521
vt 0.5257 0.4775
vt 0.5143 0.4757
vt 0.6432 0.4751
vt 0.7188 0.2623
vt 0.7178 0.0575
vt 0.7223 0.0480
vt 0.5180 0.0539
vt 0.7188 0.2682
vt 0.6447 0.2742
vt 0.6444 0.2550
vt 0.6470 0.0541
vt 0.7145 0.2527
vt 0.7188 0.4825
vt 0.7143 0.4728
vt 0.7145 0.2776
vt 0.4480 0.0562
vt 0.5154 0.2548
vt 0.0158 0.3057
vt 0.1545 0.3057
vt 0.0147 0.4515
vt 0.0147 0.5269
vt 0.5958 0.5536
vt 0.5502 0.9905
vt 0.5502 0.5536
vt 0.5174 0.9905
vt 0.4718 0.5536
vt 0.5174 0.5536
vt 0.5958 0.9905
vt 0.4718 0.9905
vn -0.1248 0.9922 -0.0000
vn 0.1248 0.9922 -0.0000
vn 0.0000 1.0000 -0.0000
vn 0.0490 -0.9988 0.0000
vn 0.9415 -0.3370 0.0000
vn -0.9415 0.3370 0.0000
vn -0.5855 -0.6836 -0.4358
vn 1.0000 -0.0000 0.0000
vn -1.0000 -0.0000 0.0000
vn 0.0000 0.0000 1.0000
vn -0.0000 -0.0000 -1.0000
vn 0.0000 -1.0000 0.0000
vn 0.6937 -0.7203 0.0000
vn 0.7660 0.0000 0.6428
vn 0.5103 -0.8600 0.0000
vn 0.0000 -0.8124 -0.5831
vn 0.0000 -0.8124 0.5831
vn -0.6937 -0.7203 0.0000
vn -0.7660 0.0000 -0.6428
vn -0.5103 -0.8600 0.0000
vn -0.7660 0.0000 0.6428
vn 0.7660 0.0000 -0.6428
vn 0.5103 0.8600 -0.0000
vn -0.5103 0.8600 -0.0000
vn -0.5855 -0.6836 0.4358
vn 0.0490 0.9988 -0.0000
vn 0.9415 0.3370 0.0000
vn -0.0490 0.9988 -0.0000
vn -0.5855 0.6836 -0.4358
vn -0.0490 -0.9988 0.0000
vn 0.5855 -0.6836 -0.4358
vn 0.5855 -0.6836 0.4358
vn -0.5855 0.6836 0.4358
vn -0.9415 -0.3370 0.0000
vn 0.5855 0.6836 -0.4358
vn 0.5855 0.6836 0.4358
vn -0.6505 -0.7595 0.0000
vn 0.6505 -0.7595 0.0000
vn -0.6505 0.7595 -0.0000
vn 0.6505 0.7595 -0.0000
vn -0.1248 -0.9922 0.0000
vn 0.1248 -0.9922 0.0000
usemtl floor
s 1
f 10/1/1 23/2/1 11/3/1
f 17/4/2 4/5/2 5/6/2
f 10/1/3 16/7/3 22/8/3
f 10/1/1 22/8/1 23/2/1
f 17/4/2 16/7/2 4/5/2
f 10/1/3 4/5/3 16/7/3
usemtl colorable
f 19/9/4 49/10/4 7/11/4
f 5/12/5 55/13/5 17/14/5
f 20/15/6 50/16/6 58/17/6
f 8/18/7 49/10/7 50/16/7
f 32/19/8 27/20/8 28/21/8
f 26/22/9 29/23/9 30/24/9
f 17/25/10 18/26/10 29/27/10
f 8/28/11 28/29/11 7/30/11
f 28/31/3 30/32/3 32/33/3
f 31/34/12 25/35/12 27/36/12
f 30/37/10 18/26/10 13/38/10
f 32/39/10 24/40/10 31/41/10
f 17/25/10 29/27/10 16/42/10
f 22/43/10 29/27/10 31/41/10
f 31/41/10 23/44/10 22/43/10
f 28/29/11 12/45/11 7/30/11
f 20/46/10 32/39/10 21/47/10
f 21/47/10 30/37/10 15/48/10
f 30/37/10 14/49/10 15/48/10
f 21/50/13 34/51/13 9/52/13
f 32/39/10 20/46/10 19/53/10
f 13/38/10 14/49/10 30/37/10
f 18/54/14 42/55/14 13/56/14
f 6/57/15 43/58/15 18/54/15
f 2/59/11 26/60/11 3/61/11
f 3/61/11 28/29/11 9/62/11
f 28/29/11 8/28/11 9/62/11
f 26/60/11 2/59/11 1/63/11
f 11/64/11 27/65/11 10/66/11
f 4/67/11 27/65/11 25/68/11
f 25/68/11 5/69/11 4/67/11
f 27/65/11 11/64/11 12/45/11
f 23/44/10 31/41/10 24/40/10
f 5/69/11 25/68/11 6/70/11
f 26/60/11 6/70/11 25/68/11
f 9/52/16 36/71/16 3/72/16
f 15/73/17 33/74/17 21/50/17
f 3/72/18 35/75/18 15/73/18
f 12/76/19 37/77/19 7/11/19
f 24/78/20 38/79/20 12/76/20
f 19/9/21 40/80/21 24/78/21
f 1/81/22 44/82/22 6/57/22
f 1/81/23 42/55/23 41/83/23
f 7/11/24 39/84/24 19/9/24
f 20/15/25 57/85/25 19/9/25
f 12/76/26 60/86/26 24/78/26
f 14/87/27 46/88/27 2/89/27
f 18/54/28 48/90/28 6/57/28
f 11/91/29 52/92/29 12/76/29
f 1/81/30 53/93/30 13/56/30
f 2/89/31 45/94/31 1/81/31
f 14/87/32 53/93/32 54/95/32
f 23/96/33 60/86/33 59/97/33
f 23/96/34 51/98/34 11/91/34
f 5/12/35 48/90/35 47/99/35
f 17/14/36 56/100/36 18/54/36
f 19/9/4 57/85/4 49/10/4
f 5/12/5 47/99/5 55/13/5
f 20/15/6 8/18/6 50/16/6
f 8/18/7 7/11/7 49/10/7
f 32/19/8 31/101/8 27/20/8
f 26/22/9 25/102/9 29/23/9
f 28/31/3 26/103/3 30/32/3
f 31/34/12 29/104/12 25/35/12
f 30/37/10 29/27/10 18/26/10
f 32/39/10 19/53/10 24/40/10
f 22/43/10 16/42/10 29/27/10
f 28/29/11 27/65/11 12/45/11
f 21/47/10 32/39/10 30/37/10
f 21/50/13 33/74/13 34/51/13
f 18/54/14 43/58/14 42/55/14
f 6/57/15 44/82/15 43/58/15
f 3/61/11 26/60/11 28/29/11
f 4/67/11 10/66/11 27/65/11
f 26/60/11 1/63/11 6/70/11
f 9/52/16 34/51/16 36/71/16
f 15/73/17 35/75/17 33/74/17
f 3/72/18 36/71/18 35/75/18
f 12/76/19 38/79/19 37/77/19
f 24/78/20 40/80/20 38/79/20
f 19/9/21 39/84/21 40/80/21
f 1/81/22 41/83/22 44/82/22
f 1/81/23 13/56/23 42/55/23
f 7/11/24 37/77/24 39/84/24
f 20/15/25 58/17/25 57/85/25
f 12/76/26 52/92/26 60/86/26
f 14/87/27 54/95/27 46/88/27
f 18/54/28 56/100/28 48/90/28
f 11/91/29 51/98/29 52/92/29
f 1/81/30 45/94/30 53/93/30
f 2/89/31 46/88/31 45/94/31
f 14/87/32 13/56/32 53/93/32
f 23/96/33 24/78/33 60/86/33
f 23/96/34 59/97/34 51/98/34
f 5/12/35 6/57/35 48/90/35
f 17/14/36 55/13/36 56/100/36
s 2
f 36/71/12 33/74/12 35/75/12
f 36/71/12 34/51/12 33/74/12
s 3
f 41/83/8 43/58/8 44/82/8
f 41/83/8 42/55/8 43/58/8
s 4
f 40/80/9 37/77/9 38/79/9
f 40/80/9 39/84/9 37/77/9
s 5
f 49/10/37 58/17/37 50/16/37
f 49/10/37 57/85/37 58/17/37
s 6
f 54/95/38 45/94/38 46/88/38
f 54/95/38 53/93/38 45/94/38
s 7
f 51/98/39 60/86/39 52/92/39
f 51/98/39 59/97/39 60/86/39
s 8
f 56/100/40 47/99/40 48/90/40
f 56/100/40 55/13/40 47/99/40
usemtl roof
s 1
f 8/105/41 21/106/41 9/107/41
f 15/108/42 2/109/42 3/110/42
f 8/105/41 20/111/41 21/106/41
f 15/108/42 14/112/42 2/109/42
