# Blender v2.77 (sub 0) OBJ File: 'dev1.blend'
# www.blender.org
mtllib dev1.mtl
o RightDoor_Cube.006
v -19.082470 -4.691064 1.031343
v -19.082470 4.691064 1.031343
v -19.082470 -4.691064 -1.031343
v -19.082470 4.691064 -1.031343
v 0.000000 -4.691064 1.031343
v 0.000000 4.691064 1.031343
v 0.000000 -4.691064 -1.031343
v 0.000000 4.691064 -1.031343
v -19.082470 -2.814638 1.031343
v -19.082470 -0.938213 1.031343
v -19.082470 0.938213 1.031343
v -19.082470 2.814638 1.031343
v -19.082470 2.814638 -1.031343
v -19.082470 0.938213 -1.031343
v -19.082470 -0.938213 -1.031343
v -19.082470 -2.814638 -1.031343
v 0.000000 2.814638 -1.031343
v 0.000000 0.938213 -1.031343
v 0.000000 -0.938213 -1.031343
v 0.000000 -2.814638 -1.031343
v 0.000000 2.814638 1.031343
v 0.000000 0.938213 1.031343
v 0.000000 -0.938213 1.031343
v 0.000000 -2.814638 1.031343
v -19.082470 4.691064 0.618806
v -19.082470 4.691064 -0.618806
v -19.082470 -4.691064 -0.618806
v -19.082470 -4.691064 0.618806
v 0.000000 4.691064 -0.618806
v 0.000000 4.691064 0.618806
v 0.000000 -4.691064 0.618806
v 0.000000 -4.691064 -0.618806
v 0.000000 2.364296 0.519797
v 0.000000 2.364296 -0.519797
v 0.000000 1.388555 0.519797
v 0.000000 1.388555 -0.519797
v 0.000000 -1.388555 0.519797
v 0.000000 -1.388555 -0.519797
v 0.000000 -2.364296 0.519797
v 0.000000 -2.364296 -0.519797
v -19.082470 2.814638 -0.618806
v -19.082470 2.814638 0.618806
v -19.082470 0.938213 -0.618806
v -19.082470 0.938213 0.618806
v -19.082470 -0.938213 -0.618806
v -19.082470 -0.938213 0.618806
v -19.082470 -2.814638 -0.618806
v -19.082470 -2.814638 0.618806
v 1.489157 4.467462 -0.471327
v 1.489157 4.467462 0.471327
v 1.489157 -4.467462 0.471327
v 1.489157 -4.467462 -0.471327
v 1.489157 3.038241 0.471327
v 1.489157 3.038241 -0.471327
v 1.489157 0.714610 0.471327
v 1.489157 0.714610 -0.471327
v 1.489157 -0.714610 0.471327
v 1.489157 -0.714610 -0.471327
v 1.489157 -3.038241 0.471327
v 1.489157 -3.038241 -0.471327
v 0.000000 2.814638 0.618806
v 0.000000 2.814638 -0.618806
v 0.000000 0.938213 0.618806
v 0.000000 0.938213 -0.618806
v 0.000000 -0.938213 0.618806
v 0.000000 -0.938213 -0.618806
v 0.000000 -2.814638 0.618806
v 0.000000 -2.814638 -0.618806
v -1.000000 2.205607 0.350723
v -1.000000 2.205607 -0.350723
v -1.000000 1.547244 0.350723
v -1.000000 1.547244 -0.350723
v -1.000000 -1.547244 0.350723
v -1.000000 -1.547244 -0.350723
v -1.000000 -2.205607 0.350723
v -1.000000 -2.205607 -0.350723
v -1.453760 4.691064 -1.031343
v -1.453760 -4.691064 -1.031343
v -1.453760 4.691064 1.031343
v -1.453760 -4.691064 1.031343
v -1.453760 2.814638 1.031343
v -1.453760 0.938213 1.031343
v -1.453760 -0.938213 1.031343
v -1.453760 -2.814638 1.031343
v -1.453760 2.814638 -1.031343
v -1.453760 0.938213 -1.031343
v -1.453760 -0.938213 -1.031343
v -1.453760 -2.814638 -1.031343
v -1.453760 4.691064 -1.120061
v 0.000000 4.691064 -1.120061
v 0.000000 -2.814638 -1.120061
v 0.000000 -4.691064 -1.120061
v 0.000000 -2.814638 1.120061
v 0.000000 -4.691064 1.120061
v -1.453760 -4.691064 1.120061
v 0.000000 2.814638 -1.120061
v 0.000000 0.938213 -1.120061
v 0.000000 -0.938213 -1.120061
v 0.000000 4.691064 1.120061
v 0.000000 2.814638 1.120061
v 0.000000 0.938213 1.120061
v 0.000000 -0.938213 1.120061
v -1.453760 2.814638 1.120061
v -1.453760 0.938213 1.120061
v -1.453760 -0.938213 1.120061
v -1.453760 -2.814638 1.120061
v -1.453760 -4.691064 -1.120061
v -1.453760 4.691064 1.120061
v -1.453760 2.814638 -1.120061
v -1.453760 0.938213 -1.120061
v -1.453760 -0.938213 -1.120061
v -1.453760 -2.814638 -1.120061
v -19.082470 5.256190 -0.618806
v -19.082470 5.256190 -1.031343
v -19.082470 -5.256190 0.618806
v -19.082470 -5.256190 1.031343
v -1.453760 5.256190 -1.031343
v 0.000000 5.256190 -1.031343
v -1.453760 -5.256190 -1.031343
v -19.082470 -5.256190 -1.031343
v 0.000000 5.256190 0.618806
v 0.000000 5.256190 1.031343
v 0.000000 -5.256190 -0.618806
v 0.000000 -5.256190 -1.031343
v -1.453760 5.256190 1.031343
v -19.082470 5.256190 1.031343
v -1.453760 -5.256190 1.031343
v 0.000000 -5.256190 1.031343
v -1.453760 5.256190 -1.120061
v -19.082470 5.256190 0.618806
v -19.082470 -5.256190 -0.618806
v 0.000000 5.256190 -0.618806
v 0.000000 -5.256190 0.618806
v -1.453760 5.256190 0.618806
v -1.453760 5.256190 -0.618806
v -1.453760 -5.256190 0.618806
v -1.453760 -5.256190 -0.618806
v 0.000000 -5.256190 1.120061
v -1.453760 -5.256190 1.120061
v 0.000000 5.256190 -1.120061
v 0.000000 -5.256190 -1.120061
v -1.453760 -5.256190 -1.120061
v 0.000000 5.256190 1.120061
v -1.453760 5.256190 1.120061
vt 0.9333 0.7463
vt 0.9445 0.6952
vt 0.9445 0.7463
vt 0.7500 0.7734
vt 0.7523 0.8215
vt 0.7500 0.8215
vt 0.9293 0.3508
vt 0.9407 0.2987
vt 0.9407 0.3508
vt 0.0086 0.6893
vt 0.6776 0.6181
vt 0.6776 0.6893
vt 0.8635 0.6110
vt 0.9185 0.5896
vt 0.9185 0.6110
vt 0.9268 0.2987
vt 0.9293 0.2830
vt 0.9293 0.2987
vt 0.0086 0.9741
vt 0.6776 0.9029
vt 0.6776 0.9741
vt 0.0086 0.9029
vt 0.6776 0.8317
vt 0.0086 0.8317
vt 0.6776 0.7605
vt 0.0086 0.7605
vt 0.9293 0.5593
vt 0.9407 0.5072
vt 0.9407 0.5593
vt 0.9293 0.5072
vt 0.9407 0.4551
vt 0.9293 0.4551
vt 0.9407 0.4029
vt 0.9293 0.4029
vt 0.9890 0.5593
vt 0.9866 0.5750
vt 0.9866 0.5593
vt 0.9268 0.5072
vt 0.7500 0.7252
vt 0.7523 0.7734
vt 0.7413 0.7252
vt 0.7391 0.6771
vt 0.7413 0.6771
vt 0.9333 0.9504
vt 0.9445 0.8994
vt 0.9445 0.9504
vt 0.9333 0.8994
vt 0.9445 0.8483
vt 0.9333 0.8483
vt 0.9445 0.7973
vt 0.9333 0.7973
vt 0.9782 0.7973
vt 0.9894 0.7463
vt 0.9894 0.7973
vt 0.9782 0.8483
vt 0.9894 0.8483
vt 0.9782 0.8994
vt 0.9894 0.8994
vt 0.9782 0.9504
vt 0.9894 0.9504
vt 0.9751 0.4029
vt 0.9866 0.3508
vt 0.9866 0.4029
vt 0.9751 0.4551
vt 0.9866 0.4551
vt 0.9751 0.5072
vt 0.9866 0.5072
vt 0.9751 0.5593
vt 0.7979 0.6113
vt 0.8527 0.5900
vt 0.8527 0.6113
vt 0.9751 0.5750
vt 0.9407 0.5750
vt 0.9293 0.5750
vt 0.9782 0.6798
vt 0.9782 0.6952
vt 0.9751 0.3508
vt 0.9866 0.2987
vt 0.9782 0.7463
vt 0.9894 0.6952
vt 0.9724 0.4947
vt 0.9435 0.4947
vt 0.9435 0.4676
vt 0.9724 0.4676
vt 0.9724 0.3904
vt 0.9435 0.3904
vt 0.9435 0.3633
vt 0.9724 0.3633
vt 0.0097 0.1174
vt 0.6780 0.0960
vt 0.6780 0.1174
vt 0.9333 0.6952
vt 0.9445 0.6798
vt 0.8527 0.9651
vt 0.7979 0.9864
vt 0.7979 0.9651
vt 0.9445 0.9658
vt 0.0097 0.2597
vt 0.6780 0.1885
vt 0.6780 0.2597
vt 0.0097 0.3308
vt 0.6780 0.3308
vt 0.0097 0.4020
vt 0.6780 0.4020
vt 0.0097 0.4731
vt 0.6780 0.4731
vt 0.7413 0.9178
vt 0.7391 0.9323
vt 0.7391 0.9178
vt 0.9890 0.4029
vt 0.7391 0.8697
vt 0.7413 0.8697
vt 0.9782 0.9658
vt 0.0086 0.6181
vt 0.6776 0.5967
vt 0.7500 0.6771
vt 0.7523 0.7252
vt 0.0097 0.1885
vt 0.7979 0.6821
vt 0.8527 0.6821
vt 0.8527 0.8943
vt 0.7979 0.8943
vt 0.8527 0.8236
vt 0.7979 0.8236
vt 0.8527 0.7528
vt 0.7979 0.7528
vt 0.8635 0.7531
vt 0.9185 0.6821
vt 0.9185 0.7531
vt 0.8635 0.8241
vt 0.9185 0.8241
vt 0.8635 0.8952
vt 0.9185 0.8952
vt 0.8635 0.9662
vt 0.9185 0.9662
vt 0.8635 0.6821
vt 0.9268 0.4551
vt 0.7523 0.9178
vt 0.7500 0.9323
vt 0.7500 0.9178
vt 0.7523 0.8697
vt 0.7500 0.8697
vt 0.9268 0.4029
vt 0.9894 0.6798
vt 0.9268 0.3508
vt 0.9890 0.3508
vt 0.7413 0.7734
vt 0.7391 0.7252
vt 0.7413 0.8215
vt 0.7391 0.7734
vt 0.9890 0.5072
vt 0.7391 0.8215
vt 0.9890 0.4551
vt 0.8125 0.4656
vt 0.8769 0.4839
vt 0.8125 0.4839
vt 0.6803 0.0865
vt 0.0100 0.0708
vt 0.6803 0.0708
vt 0.7360 0.4649
vt 0.8005 0.4610
vt 0.8005 0.4649
vt 0.6803 0.0238
vt 0.0100 0.0081
vt 0.6803 0.0081
vt 0.8125 0.5388
vt 0.8769 0.5571
vt 0.8125 0.5571
vt 0.6786 0.5242
vt 0.0084 0.5713
vt 0.0084 0.5242
vt 0.6786 0.5870
vt 0.0084 0.5870
vt 0.7360 0.5381
vt 0.8005 0.4832
vt 0.8005 0.5381
vt 0.8769 0.4617
vt 0.8769 0.4656
vt 0.8005 0.5563
vt 0.0084 0.5086
vt 0.8125 0.5610
vt 0.7360 0.5603
vt 0.7360 0.5563
vt 0.9751 0.2830
vt 0.9866 0.2830
vt 0.8635 0.9876
vt 0.9407 0.2830
vt 0.0086 0.9956
vt 0.9751 0.2987
vt 0.7413 0.6626
vt 0.7523 0.6626
vt 0.7523 0.6771
vt 0.9890 0.2830
vt 0.9890 0.2987
vt 0.0097 0.4945
vt 0.9333 0.9658
vt 0.9268 0.5750
vt 0.9268 0.5593
vt 0.8635 0.5896
vt 0.9268 0.2830
vt 0.9890 0.5750
vt 0.7979 0.5900
vt 0.0097 0.0960
vt 0.9333 0.6798
vt 0.8527 0.9864
vt 0.7413 0.9323
vt 0.9894 0.9658
vt 0.0086 0.5967
vt 0.7523 0.9323
vt 0.0100 0.0865
vt 0.7360 0.4610
vt 0.0100 0.0238
vt 0.8769 0.5388
vt 0.6786 0.5713
vt 0.7360 0.4832
vt 0.8125 0.4617
vt 0.6786 0.5086
vt 0.8769 0.5610
vt 0.8005 0.5603
vt 0.9185 0.9876
vt 0.6776 0.9956
vt 0.7391 0.6626
vt 0.7500 0.6626
vt 0.6780 0.4945
vt 0.9485 0.1634
vt 0.9228 0.1424
vt 0.9485 0.1383
vt 0.8788 0.1433
vt 0.8968 0.1602
vt 0.8788 0.1602
vt 0.8967 0.0971
vt 0.8789 0.0816
vt 0.8967 0.0785
vt 0.9611 0.1635
vt 0.9867 0.1425
vt 0.9867 0.1594
vt 0.8552 0.0956
vt 0.8373 0.0801
vt 0.8552 0.0771
vt 0.9228 0.1593
vt 0.8968 0.1433
vt 0.8789 0.0941
vt 0.9611 0.1384
vt 0.8373 0.0926
vt 0.9515 0.0468
vt 0.9250 0.0662
vt 0.9250 0.0442
vt 0.7436 0.0725
vt 0.7054 0.0300
vt 0.7436 0.0243
vt 0.8339 0.0346
vt 0.8580 0.0712
vt 0.8339 0.0712
vt 0.9618 0.0773
vt 0.9883 0.0967
vt 0.9618 0.0994
vt 0.7620 0.0218
vt 0.8002 0.0643
vt 0.7620 0.0700
vt 0.9515 0.0636
vt 0.7054 0.0667
vt 0.8580 0.0346
vt 0.9883 0.0799
vt 0.8002 0.0276
vt 0.9515 0.1065
vt 0.9250 0.1259
vt 0.9250 0.1039
vt 0.8339 0.1308
vt 0.8580 0.1675
vt 0.8339 0.1675
vt 0.7436 0.1687
vt 0.7054 0.1263
vt 0.7436 0.1206
vt 0.9618 0.1021
vt 0.9883 0.1215
vt 0.9618 0.1242
vt 0.7620 0.1181
vt 0.8002 0.1606
vt 0.7620 0.1663
vt 0.9515 0.1233
vt 0.8580 0.1308
vt 0.7054 0.1630
vt 0.9883 0.1047
vt 0.8002 0.1239
vt 0.9485 0.2346
vt 0.9228 0.2556
vt 0.9228 0.2387
vt 0.8788 0.2396
vt 0.8968 0.2565
vt 0.8788 0.2565
vt 0.8967 0.1242
vt 0.8789 0.1087
vt 0.8967 0.1057
vt 0.9611 0.2347
vt 0.9867 0.2557
vt 0.9611 0.2598
vt 0.8552 0.1189
vt 0.8373 0.1034
vt 0.8552 0.1004
vt 0.9485 0.2597
vt 0.8968 0.2396
vt 0.8789 0.1212
vt 0.9867 0.2388
vt 0.8373 0.1159
vt 0.8339 0.2638
vt 0.8580 0.2271
vt 0.8580 0.2638
vt 0.7436 0.2650
vt 0.7054 0.2226
vt 0.7436 0.2169
vt 0.9250 0.0744
vt 0.9515 0.0938
vt 0.9250 0.0965
vt 0.9618 0.0486
vt 0.9883 0.0681
vt 0.9618 0.0707
vt 0.7620 0.2144
vt 0.8002 0.2568
vt 0.7620 0.2626
vt 0.8339 0.2271
vt 0.7054 0.2593
vt 0.9515 0.0771
vt 0.9883 0.0513
vt 0.8002 0.2202
vn -1.0000 0.0000 0.0000
vn 1.0000 0.0000 0.0000
vn 0.0000 0.0000 1.0000
vn 0.0000 0.0000 -1.0000
vn 0.0000 -1.0000 0.0000
vn 0.0000 1.0000 0.0000
vn 0.1667 0.0000 0.9860
vn 0.1567 -0.9876 0.0000
vn 0.1667 0.0000 -0.9860
vn 0.1567 0.9876 0.0000
vn 0.1485 0.9889 0.0000
vn 0.0986 0.0000 -0.9951
vn 0.1485 -0.9889 0.0000
vn 0.0986 0.0000 0.9951
usemtl None
s 1
f 16/1/1 27/2/1 47/3/1
f 83/4/1 104/5/1 82/6/1
f 24/7/2 31/8/2 67/9/2
f 9/10/3 80/11/3 84/12/3
f 95/13/3 138/14/3 94/15/3
f 94/16/2 128/17/2 5/18/2
f 2/19/3 81/20/3 79/21/3
f 12/22/3 82/23/3 81/20/3
f 11/24/3 83/25/3 82/23/3
f 10/26/3 84/12/3 83/25/3
f 6/27/2 61/28/2 30/29/2
f 21/30/2 63/31/2 61/28/2
f 22/32/2 65/33/2 63/31/2
f 23/34/2 67/9/2 65/33/2
f 90/35/2 118/36/2 8/37/2
f 6/27/2 100/38/2 21/30/2
f 84/39/1 105/40/1 83/4/1
f 88/41/1 107/42/1 78/43/1
f 4/44/1 41/45/1 26/46/1
f 13/47/1 43/48/1 41/45/1
f 14/49/1 45/50/1 43/48/1
f 15/51/1 47/3/1 45/50/1
f 46/52/1 9/53/1 10/54/1
f 47/3/1 46/52/1 45/50/1
f 44/55/1 10/54/1 11/56/1
f 45/50/1 44/55/1 43/48/1
f 42/57/1 11/56/1 12/58/1
f 43/48/1 42/57/1 41/45/1
f 25/59/1 12/58/1 2/60/1
f 26/46/1 42/57/1 25/59/1
f 66/61/2 20/62/2 19/63/2
f 64/64/2 19/63/2 18/65/2
f 62/66/2 18/65/2 17/67/2
f 29/68/2 17/67/2 8/37/2
f 92/69/4 142/70/4 107/71/4
f 8/37/2 132/72/2 29/68/2
f 6/27/2 121/73/2 122/74/2
f 27/2/1 115/75/1 28/76/1
f 68/77/2 7/78/2 20/62/2
f 48/79/1 1/80/1 9/53/1
f 27/2/1 48/79/1 47/3/1
f 34/81/2 61/28/2 33/82/2
f 35/83/2 64/64/2 36/84/2
f 38/85/2 65/33/2 37/86/2
f 39/87/2 68/77/2 40/88/2
f 38/85/2 68/77/2 66/61/2
f 37/86/2 67/9/2 39/87/2
f 36/84/2 62/66/2 34/81/2
f 35/83/2 61/28/2 63/31/2
f 78/89/4 120/90/4 3/91/4
f 3/92/1 131/93/1 27/2/1
f 89/94/4 140/95/4 90/96/4
f 25/59/1 113/97/1 26/46/1
f 87/98/4 16/99/4 15/100/4
f 86/101/4 15/100/4 14/102/4
f 85/103/4 14/102/4 13/104/4
f 77/105/4 13/104/4 4/106/4
f 77/107/1 129/108/1 89/109/1
f 20/62/2 98/110/2 19/63/2
f 77/107/1 109/111/1 85/112/1
f 24/7/2 94/16/2 5/18/2
f 2/60/1 130/113/1 25/59/1
f 1/114/3 127/115/3 80/11/3
f 80/116/1 106/117/1 84/39/1
f 88/118/4 3/91/4 16/99/4
f 91/119/4 107/71/4 112/120/4
f 90/96/4 109/121/4 89/94/4
f 96/122/4 110/123/4 109/121/4
f 97/124/4 111/125/4 110/123/4
f 98/126/4 112/120/4 111/125/4
f 105/127/3 93/128/3 102/129/3
f 104/130/3 102/129/3 101/131/3
f 103/132/3 101/131/3 100/133/3
f 108/134/3 100/133/3 99/135/3
f 106/136/3 94/15/3 93/128/3
f 21/30/2 101/137/2 22/32/2
f 108/138/1 125/139/1 79/140/1
f 82/6/1 103/141/1 81/142/1
f 22/32/2 102/143/2 23/34/2
f 1/80/1 115/75/1 116/144/1
f 81/142/1 108/138/1 79/140/1
f 23/34/2 93/145/2 24/7/2
f 7/78/2 91/146/2 20/62/2
f 87/147/1 112/148/1 88/41/1
f 17/67/2 90/35/2 8/37/2
f 86/149/1 111/150/1 87/147/1
f 18/65/2 96/151/2 17/67/2
f 85/112/1 110/152/1 86/149/1
f 19/63/2 97/153/2 18/65/2
f 119/154/5 123/155/5 137/156/5
f 117/157/6 113/158/6 135/159/6
f 125/160/6 143/161/6 122/162/6
f 134/163/6 126/164/6 125/165/6
f 113/158/6 134/163/6 135/159/6
f 136/166/5 128/167/5 127/168/5
f 123/155/5 136/166/5 137/156/5
f 137/169/5 115/170/5 131/171/5
f 115/170/5 127/172/5 116/173/5
f 135/174/6 121/175/6 132/176/6
f 121/175/6 125/160/6 122/162/6
f 119/154/5 141/177/5 124/178/5
f 118/179/6 135/174/6 132/176/6
f 120/180/5 137/169/5 131/171/5
f 128/167/5 139/181/5 127/168/5
f 118/179/6 129/182/6 117/183/6
f 29/68/2 121/73/2 30/29/2
f 7/78/2 123/184/2 124/185/2
f 99/135/3 144/186/3 108/134/3
f 5/18/2 133/187/2 31/8/2
f 79/21/3 126/188/3 2/19/3
f 31/8/2 123/184/2 32/189/2
f 107/42/1 119/190/1 78/43/1
f 80/116/1 139/191/1 95/192/1
f 7/78/2 141/193/2 92/194/2
f 4/106/4 117/195/4 77/105/4
f 4/44/1 113/97/1 114/196/1
f 6/27/2 143/197/2 99/198/2
f 16/1/1 3/92/1 27/2/1
f 83/4/1 105/40/1 104/5/1
f 24/7/2 5/18/2 31/8/2
f 9/10/3 1/114/3 80/11/3
f 95/13/3 139/199/3 138/14/3
f 94/16/2 138/200/2 128/17/2
f 2/19/3 12/22/3 81/20/3
f 12/22/3 11/24/3 82/23/3
f 11/24/3 10/26/3 83/25/3
f 10/26/3 9/10/3 84/12/3
f 6/27/2 21/30/2 61/28/2
f 21/30/2 22/32/2 63/31/2
f 22/32/2 23/34/2 65/33/2
f 23/34/2 24/7/2 67/9/2
f 90/35/2 140/201/2 118/36/2
f 6/27/2 99/198/2 100/38/2
f 84/39/1 106/117/1 105/40/1
f 88/41/1 112/148/1 107/42/1
f 4/44/1 13/47/1 41/45/1
f 13/47/1 14/49/1 43/48/1
f 14/49/1 15/51/1 45/50/1
f 15/51/1 16/1/1 47/3/1
f 46/52/1 48/79/1 9/53/1
f 47/3/1 48/79/1 46/52/1
f 44/55/1 46/52/1 10/54/1
f 45/50/1 46/52/1 44/55/1
f 42/57/1 44/55/1 11/56/1
f 43/48/1 44/55/1 42/57/1
f 25/59/1 42/57/1 12/58/1
f 26/46/1 41/45/1 42/57/1
f 66/61/2 68/77/2 20/62/2
f 64/64/2 66/61/2 19/63/2
f 62/66/2 64/64/2 18/65/2
f 29/68/2 62/66/2 17/67/2
f 92/69/4 141/202/4 142/70/4
f 8/37/2 118/36/2 132/72/2
f 6/27/2 30/29/2 121/73/2
f 27/2/1 131/93/1 115/75/1
f 68/77/2 32/189/2 7/78/2
f 48/79/1 28/76/1 1/80/1
f 27/2/1 28/76/1 48/79/1
f 34/81/2 62/66/2 61/28/2
f 35/83/2 63/31/2 64/64/2
f 38/85/2 66/61/2 65/33/2
f 39/87/2 67/9/2 68/77/2
f 38/85/2 40/88/2 68/77/2
f 37/86/2 65/33/2 67/9/2
f 36/84/2 64/64/2 62/66/2
f 35/83/2 33/82/2 61/28/2
f 78/89/4 119/203/4 120/90/4
f 3/92/1 120/204/1 131/93/1
f 89/94/4 129/205/4 140/95/4
f 25/59/1 130/113/1 113/97/1
f 87/98/4 88/118/4 16/99/4
f 86/101/4 87/98/4 15/100/4
f 85/103/4 86/101/4 14/102/4
f 77/105/4 85/103/4 13/104/4
f 77/107/1 117/206/1 129/108/1
f 20/62/2 91/146/2 98/110/2
f 77/107/1 89/109/1 109/111/1
f 24/7/2 93/145/2 94/16/2
f 2/60/1 126/207/1 130/113/1
f 1/114/3 116/208/3 127/115/3
f 80/116/1 95/192/1 106/117/1
f 88/118/4 78/89/4 3/91/4
f 91/119/4 92/69/4 107/71/4
f 90/96/4 96/122/4 109/121/4
f 96/122/4 97/124/4 110/123/4
f 97/124/4 98/126/4 111/125/4
f 98/126/4 91/119/4 112/120/4
f 105/127/3 106/136/3 93/128/3
f 104/130/3 105/127/3 102/129/3
f 103/132/3 104/130/3 101/131/3
f 108/134/3 103/132/3 100/133/3
f 106/136/3 95/13/3 94/15/3
f 21/30/2 100/38/2 101/137/2
f 108/138/1 144/209/1 125/139/1
f 82/6/1 104/5/1 103/141/1
f 22/32/2 101/137/2 102/143/2
f 1/80/1 28/76/1 115/75/1
f 81/142/1 103/141/1 108/138/1
f 23/34/2 102/143/2 93/145/2
f 7/78/2 92/194/2 91/146/2
f 87/147/1 111/150/1 112/148/1
f 17/67/2 96/151/2 90/35/2
f 86/149/1 110/152/1 111/150/1
f 18/65/2 97/153/2 96/151/2
f 85/112/1 109/111/1 110/152/1
f 19/63/2 98/110/2 97/153/2
f 119/154/5 124/178/5 123/155/5
f 117/157/6 114/210/6 113/158/6
f 125/160/6 144/211/6 143/161/6
f 134/163/6 130/212/6 126/164/6
f 113/158/6 130/212/6 134/163/6
f 136/166/5 133/213/5 128/167/5
f 123/155/5 133/213/5 136/166/5
f 137/169/5 136/214/5 115/170/5
f 115/170/5 136/214/5 127/172/5
f 135/174/6 134/215/6 121/175/6
f 121/175/6 134/215/6 125/160/6
f 119/154/5 142/216/5 141/177/5
f 118/179/6 117/183/6 135/174/6
f 120/180/5 119/217/5 137/169/5
f 128/167/5 138/218/5 139/181/5
f 118/179/6 140/219/6 129/182/6
f 29/68/2 132/72/2 121/73/2
f 7/78/2 32/189/2 123/184/2
f 99/135/3 143/220/3 144/186/3
f 5/18/2 128/17/2 133/187/2
f 79/21/3 125/221/3 126/188/3
f 31/8/2 133/187/2 123/184/2
f 107/42/1 142/222/1 119/190/1
f 80/116/1 127/223/1 139/191/1
f 7/78/2 124/185/2 141/193/2
f 4/106/4 114/224/4 117/195/4
f 4/44/1 26/46/1 113/97/1
f 6/27/2 122/74/2 143/197/2
s 2
f 38/225/7 76/226/7 40/227/7
f 75/228/2 74/229/2 73/230/2
f 37/231/8 74/232/8 38/233/8
f 37/234/9 75/235/9 73/236/9
f 40/237/10 75/238/10 39/239/10
f 38/225/7 74/240/7 76/226/7
f 75/228/2 76/241/2 74/229/2
f 37/231/8 73/242/8 74/232/8
f 37/234/9 39/243/9 75/235/9
f 40/237/10 76/244/10 75/238/10
s 3
f 59/245/11 68/246/11 67/247/11
f 68/248/12 52/249/12 32/250/12
f 51/251/2 60/252/2 59/253/2
f 32/254/13 51/255/13 31/256/13
f 31/257/14 59/258/14 67/259/14
f 59/245/11 60/260/11 68/246/11
f 68/248/12 60/261/12 52/249/12
f 51/251/2 52/262/2 60/252/2
f 32/254/13 52/263/13 51/255/13
f 31/257/14 51/264/14 59/258/14
s 4
f 55/265/11 64/266/11 63/267/11
f 57/268/2 56/269/2 55/270/2
f 64/271/12 58/272/12 66/273/12
f 66/274/13 57/275/13 65/276/13
f 65/277/14 55/278/14 63/279/14
f 55/265/11 56/280/11 64/266/11
f 57/268/2 58/281/2 56/269/2
f 64/271/12 56/282/12 58/272/12
f 66/274/13 58/283/13 57/275/13
f 65/277/14 57/284/14 55/278/14
s 5
f 36/285/7 70/286/7 72/287/7
f 71/288/2 70/289/2 69/290/2
f 33/291/8 70/292/8 34/293/8
f 35/294/9 69/295/9 33/296/9
f 36/297/10 71/298/10 35/299/10
f 36/285/7 34/300/7 70/286/7
f 71/288/2 72/301/2 70/289/2
f 33/291/8 69/302/8 70/292/8
f 35/294/9 71/303/9 69/295/9
f 36/297/10 72/304/10 71/298/10
s 6
f 50/305/2 54/306/2 49/307/2
f 29/308/12 54/309/12 62/310/12
f 30/311/11 49/312/11 29/313/11
f 62/314/13 53/315/13 61/316/13
f 61/317/14 50/318/14 30/319/14
f 50/305/2 53/320/2 54/306/2
f 29/308/12 49/321/12 54/309/12
f 30/311/11 50/322/11 49/312/11
f 62/314/13 54/323/13 53/315/13
f 61/317/14 53/324/14 50/318/14
