# Blender v2.77 (sub 0) OBJ File: 'dev1.blend'
# www.blender.org
mtllib dev1.mtl
o Cube
v -1.250000 -1.250000 1.250000
v -1.250000 1.250000 1.250000
v -1.250000 -1.250000 -1.250000
v -1.250000 1.250000 -1.250000
v 1.250000 -1.250000 1.250000
v 1.250000 1.250000 1.250000
v 1.250000 -1.250000 -1.250000
v 1.250000 1.250000 -1.250000
vt 1.0000 0.0000
vt 0.0000 1.0000
vt 0.0000 0.0000
vt 1.0000 1.0000
vt 1.0000 0.0000
vt 0.0000 1.0000
vt 0.0000 0.0000
vt 1.0000 1.0000
vt 1.0000 0.0000
vt 0.0000 1.0000
vt 0.0000 0.0000
vt 1.0000 1.0000
vt 1.0000 0.0000
vt 0.0000 1.0000
vt 0.0000 0.0000
vt 1.0000 1.0000
vt 0.0000 1.0000
vt 1.0000 1.0000
vt 1.0000 0.0000
vt 0.0000 0.0000
vn 0.0000 0.0000 -1.0000
vn 1.0000 0.0000 0.0000
vn 0.0000 0.0000 1.0000
vn -1.0000 0.0000 0.0000
vn 0.0000 1.0000 0.0000
vn 0.0000 -1.0000 0.0000
usemtl Material
s off
f 8/1/1 3/2/1 4/3/1
f 8/1/1 7/4/1 3/2/1
usemtl Material.001
f 6/5/2 7/6/2 8/7/2
f 6/5/2 5/8/2 7/6/2
usemtl Material.002
f 2/9/3 5/10/3 6/11/3
f 2/9/3 1/12/3 5/10/3
usemtl Material.003
f 4/13/4 1/14/4 2/15/4
f 4/13/4 3/16/4 1/14/4
usemtl Material.004
f 8/1/5 2/17/5 6/11/5
f 8/1/5 4/18/5 2/17/5
usemtl Material.005
f 3/19/6 5/10/6 1/20/6
f 3/19/6 7/4/6 5/10/6
