# Blender v2.77 (sub 0) OBJ File: 'lights1_0.blend'
# www.blender.org
mtllib lights1_0.mtl
o Cube
v -1.250000 -1.250000 1.250000
v -1.250000 1.250000 1.250000
v -0.572925 -0.572925 -1.333684
v -0.572925 0.572925 -1.333684
v 1.250000 -1.250000 1.250000
v 1.250000 1.250000 1.250000
v 0.572925 -0.572925 -1.333684
v 0.572925 0.572925 -1.333684
v -1.250000 1.250000 -1.250000
v -1.250000 -1.250000 -1.250000
v 1.250000 1.250000 -1.250000
v 1.250000 -1.250000 -1.250000
v -1.176615 1.176615 -1.250000
v -1.176615 -1.176615 -1.250000
v 1.176615 1.176615 -1.250000
v 1.176615 -1.176615 -1.250000
v -1.132747 1.132747 -1.270921
v -1.053022 1.053022 -1.291842
v -0.919608 0.919608 -1.312763
v -0.919608 -0.919608 -1.312763
v -1.053022 -1.053022 -1.291842
v -1.132747 -1.132747 -1.270921
v 1.132747 1.132747 -1.270921
v 1.053022 1.053022 -1.291842
v 0.919608 0.919608 -1.312763
v 1.132747 -1.132747 -1.270921
v 1.053022 -1.053022 -1.291842
v 0.919608 -0.919608 -1.312763
vt 0.3602 0.1793
vt 0.5237 0.0157
vt 0.5237 0.1793
vt 0.5340 0.1800
vt 0.6976 0.0165
vt 0.6976 0.1798
vt 0.8779 0.0157
vt 0.7144 0.1793
vt 0.7144 0.0157
vt 0.0104 0.0156
vt 0.1740 0.1792
vt 0.0104 0.1792
vt 0.3490 0.1792
vt 0.1855 0.0156
vt 0.3490 0.0156
vt 0.9845 0.2026
vt 0.9893 0.3614
vt 0.9845 0.3566
vt 0.8258 0.3614
vt 0.8306 0.3566
vt 0.8258 0.1978
vt 0.8306 0.2026
vt 0.9893 0.1978
vt 0.3602 0.0157
vt 0.5340 0.0167
vt 0.8779 0.1793
vt 0.1740 0.0156
vt 0.1855 0.1792
vt 0.2099 0.7907
vt 0.5994 0.4012
vt 0.5994 0.7907
vt 0.7897 0.9810
vt 0.8046 0.1959
vt 0.8046 0.9959
vt 0.0196 0.9810
vt 0.0046 0.9959
vt 0.0196 0.2108
vt 0.0046 0.1959
vt 0.7897 0.2108
vt 0.0920 0.2833
vt 0.7173 0.2833
vt 0.7626 0.2380
vt 0.2099 0.4012
vt 0.0920 0.9086
vt 0.0467 0.2380
vt 0.7173 0.9086
vt 0.0467 0.9539
vt 0.7626 0.9539
vn -1.0000 0.0000 0.0000
vn 1.0000 0.0000 0.0000
vn 0.0000 0.0000 1.0000
vn 0.0000 -1.0000 0.0000
vn 0.0000 1.0000 0.0000
vn -0.0000 0.0000 -1.0000
vn 0.0226 0.0226 -0.9995
vn -0.0226 -0.0226 -0.9995
vn -0.0226 0.0226 -0.9995
vn -0.2007 0.2007 -0.9589
vn -0.4305 0.0000 -0.9026
vn 0.2007 0.2007 -0.9589
vn 0.0000 0.4305 -0.9026
vn 0.2007 -0.2007 -0.9589
vn 0.4305 0.0000 -0.9026
vn -0.2007 -0.2007 -0.9589
vn 0.0000 -0.4305 -0.9026
vn 0.0659 -0.0659 -0.9956
vn -0.0659 -0.0659 -0.9956
vn -0.1160 -0.1160 -0.9864
vn 0.0226 -0.0226 -0.9995
vn 0.0659 0.0659 -0.9956
vn 0.1160 -0.1160 -0.9864
vn -0.0659 0.0659 -0.9956
vn 0.1160 0.1160 -0.9864
vn -0.1160 0.1160 -0.9864
usemtl light
s 1
f 9/1/1 1/2/1 2/3/1
f 6/4/2 12/5/2 11/6/2
f 2/7/3 5/8/3 6/9/3
f 10/10/4 5/11/4 1/12/4
f 11/13/5 2/14/5 6/15/5
f 14/16/6 9/17/6 13/18/6
f 13/18/6 11/19/6 15/20/6
f 15/20/6 12/21/6 16/22/6
f 16/22/6 10/23/6 14/16/6
f 9/1/1 10/24/1 1/2/1
f 6/4/2 5/25/2 12/5/2
f 2/7/3 1/26/3 5/8/3
f 10/10/4 12/27/4 5/11/4
f 11/13/5 9/28/5 2/14/5
f 14/16/6 10/23/6 9/17/6
f 13/18/6 9/17/6 11/19/6
f 15/20/6 11/19/6 12/21/6
f 16/22/6 12/21/6 10/23/6
usemtl emissive
s 2
f 8/29/7 3/30/8 4/31/9
f 17/32/10 14/33/11 13/34/11
f 23/35/12 13/34/13 15/36/13
f 26/37/14 15/36/15 16/38/15
f 22/39/16 16/38/17 14/33/17
f 3/30/8 28/40/18 20/41/19
f 28/40/18 21/42/20 20/41/19
f 21/42/20 26/37/14 22/39/16
f 8/29/7 28/40/18 7/43/21
f 25/44/22 27/45/23 28/40/18
f 27/45/23 23/35/12 26/37/14
f 4/31/9 25/44/22 8/29/7
f 19/46/24 24/47/25 25/44/22
f 24/47/25 17/32/10 23/35/12
f 3/30/8 19/46/24 4/31/9
f 20/41/19 18/48/26 19/46/24
f 21/42/20 17/32/10 18/48/26
f 8/29/7 7/43/21 3/30/8
f 17/32/10 22/39/16 14/33/11
f 23/35/12 17/32/10 13/34/13
f 26/37/14 23/35/12 15/36/15
f 22/39/16 26/37/14 16/38/17
f 3/30/8 7/43/21 28/40/18
f 28/40/18 27/45/23 21/42/20
f 21/42/20 27/45/23 26/37/14
f 8/29/7 25/44/22 28/40/18
f 25/44/22 24/47/25 27/45/23
f 27/45/23 24/47/25 23/35/12
f 4/31/9 19/46/24 25/44/22
f 19/46/24 18/48/26 24/47/25
f 24/47/25 18/48/26 17/32/10
f 3/30/8 20/41/19 19/46/24
f 20/41/19 21/42/20 18/48/26
f 21/42/20 22/39/16 17/32/10
