# Blender v2.77 (sub 0) OBJ File: 'cc_reactor_mk1.blend'
# www.blender.org
mtllib cc_reactor_panel.mtl
o console_Cylinder.003
v -0.568149 -5.355942 2.856270
v -0.637721 -5.554621 3.206033
v -1.114462 -5.355942 2.690548
v -1.250934 -5.554621 3.020017
v -1.617949 -5.355942 2.421428
v -1.816074 -5.554621 2.717942
v -2.059258 -5.355942 2.059255
v -2.311423 -5.554621 2.311419
v -2.421430 -5.355942 1.617945
v -2.717945 -5.554621 1.816070
v -2.690549 -5.355942 1.114459
v -3.020019 -5.554621 1.250930
v -2.856271 -5.355942 0.568146
v -3.206034 -5.554621 0.637717
v -2.912228 -5.355942 -0.000002
v -3.268843 -5.554621 -0.000003
v -2.856270 -5.355942 -0.568151
v -3.206033 -5.554621 -0.637723
v -2.690547 -5.355942 -1.114465
v -3.020016 -5.554621 -1.250936
v -2.421428 -5.355942 -1.617949
v -2.717942 -5.554621 -1.816075
v -2.059253 -5.355942 -2.059259
v -2.311419 -5.554621 -2.311424
v -1.617944 -5.355942 -2.421432
v -1.816069 -5.554621 -2.717947
v -1.114457 -5.355942 -2.690550
v -1.250928 -5.554621 -3.020019
v -0.000000 -5.554621 -3.268843
v -0.000000 -5.355942 -2.912228
v -0.568143 -5.355942 -2.856272
v -0.637715 -5.554621 -3.206034
v -0.000001 -5.554621 3.268843
v -0.000001 -5.355942 2.912228
v 0.637719 -5.554621 3.206033
v 0.568146 -5.355942 2.856270
v 1.250932 -5.554621 3.020017
v 1.114462 -5.355942 2.690548
v 1.816072 -5.554621 2.717944
v 1.617948 -5.355942 2.421429
v 2.311421 -5.554621 2.311421
v 2.059256 -5.355942 2.059256
v 2.717944 -5.554621 1.816072
v 2.421429 -5.355942 1.617948
v 3.020017 -5.554621 1.250932
v 2.690548 -5.355942 1.114460
v 3.206033 -5.554621 0.637719
v 2.856270 -5.355942 0.568148
v 3.268843 -5.554621 -0.000000
v 2.912228 -5.355942 -0.000000
v 3.206033 -5.554621 -0.637720
v 2.856270 -5.355942 -0.568148
v 3.020017 -5.554621 -1.250932
v 2.690548 -5.355942 -1.114461
v 2.717944 -5.554621 -1.816072
v 2.421429 -5.355942 -1.617948
v 2.311421 -5.554621 -2.311421
v 2.059256 -5.355942 -2.059256
v 1.816072 -5.554621 -2.717944
v 1.617947 -5.355942 -2.421429
v 1.250932 -5.554621 -3.020017
v 1.114461 -5.355942 -2.690548
v 0.637720 -5.554621 -3.206033
v 0.568148 -5.355942 -2.856270
vt 0.3639 0.9560
vt 0.4235 0.6106
vt 0.4235 0.9560
vt 0.4832 0.9560
vt 0.4832 0.6106
vt 0.5428 0.9560
vt 0.5428 0.6106
vt 0.6025 0.9560
vt 0.6025 0.6106
vt 0.6621 0.6106
vt 0.6621 0.9560
vt 0.7218 0.6106
vt 0.7218 0.9560
vt 0.7814 0.9560
vt 0.7814 0.6106
vt 0.8410 0.9560
vt 0.8410 0.6106
vt 0.9007 0.6106
vt 0.9007 0.9560
vt 0.9603 0.6106
vt 0.9603 0.9560
vt 0.0666 0.4848
vt 0.0070 0.1393
vt 0.0666 0.1393
vt 0.1263 0.1393
vt 0.1263 0.4848
vt 0.1859 0.1393
vt 0.1859 0.4848
vt 0.2456 0.1393
vt 0.2456 0.4848
vt 0.3052 0.4848
vt 0.3052 0.1393
vt 0.3649 0.4848
vt 0.3649 0.1393
vt 0.4245 0.1393
vt 0.4245 0.4848
vt 0.4842 0.4848
vt 0.4842 0.1393
vt 0.5438 0.1393
vt 0.5438 0.4848
vt 0.6034 0.1393
vt 0.6034 0.4848
vt 0.6631 0.4848
vt 0.6631 0.1393
vt 0.7227 0.1393
vt 0.7227 0.4848
vt 0.7824 0.1393
vt 0.7824 0.4848
vt 0.8420 0.4848
vt 0.8420 0.1393
vt 0.9017 0.1393
vt 0.9017 0.4848
vt 0.9613 0.4848
vt 0.9613 0.1393
vt 0.0060 0.9560
vt 0.0656 0.6106
vt 0.0656 0.9560
vt 0.1253 0.6106
vt 0.1253 0.9560
vt 0.1849 0.9560
vt 0.1849 0.6106
vt 0.2446 0.6106
vt 0.2446 0.9560
vt 0.3042 0.6106
vt 0.3042 0.9560
vt 0.3639 0.6106
vt 0.0070 0.4848
vt 0.0060 0.6106
vn 0.0000 0.8736 -0.4867
vn -0.0949 0.8736 -0.4773
vn -0.1862 0.8736 -0.4496
vn -0.2704 0.8736 -0.4047
vn -0.3441 0.8736 -0.3441
vn -0.4047 0.8736 -0.2704
vn -0.4496 0.8736 -0.1862
vn -0.4773 0.8736 -0.0949
vn -0.4867 0.8736 -0.0000
vn -0.4773 0.8736 0.0949
vn -0.4496 0.8736 0.1862
vn -0.4047 0.8736 0.2704
vn -0.3441 0.8736 0.3441
vn -0.2704 0.8736 0.4047
vn -0.1862 0.8736 0.4496
vn -0.0949 0.8736 0.4773
vn -0.0000 0.8736 0.4867
vn 0.0949 0.8736 0.4773
vn 0.1862 0.8736 0.4496
vn 0.2704 0.8736 0.4047
vn 0.3441 0.8736 0.3441
vn 0.4047 0.8736 0.2704
vn 0.4496 0.8736 0.1862
vn 0.4773 0.8736 0.0949
vn 0.4867 0.8736 -0.0000
vn 0.4773 0.8736 -0.0949
vn 0.4496 0.8736 -0.1862
vn 0.4047 0.8736 -0.2704
vn 0.3441 0.8736 -0.3441
vn 0.2704 0.8736 -0.4047
vn 0.1862 0.8736 -0.4496
vn 0.0949 0.8736 -0.4773
usemtl Material
s 1
f 30/1/1 32/2/2 31/3/2
f 27/4/3 32/2/2 28/5/3
f 25/6/4 28/5/3 26/7/4
f 23/8/5 26/7/4 24/9/5
f 23/8/5 22/10/6 21/11/6
f 21/11/6 20/12/7 19/13/7
f 17/14/8 20/12/7 18/15/8
f 15/16/9 18/15/8 16/17/9
f 15/16/9 14/18/10 13/19/10
f 13/19/10 12/20/11 11/21/11
f 9/22/12 12/23/11 10/24/12
f 9/22/12 8/25/13 7/26/13
f 7/26/13 6/27/14 5/28/14
f 5/28/14 4/29/15 3/30/15
f 1/31/16 4/29/15 2/32/16
f 34/33/17 2/32/16 33/34/17
f 34/33/17 35/35/18 36/36/18
f 38/37/19 35/35/18 37/38/19
f 38/37/19 39/39/20 40/40/20
f 40/40/20 41/41/21 42/42/21
f 44/43/22 41/41/21 43/44/22
f 44/43/22 45/45/23 46/46/23
f 46/46/23 47/47/24 48/48/24
f 50/49/25 47/47/24 49/50/25
f 50/49/25 51/51/26 52/52/26
f 54/53/27 51/51/26 53/54/27
f 54/55/27 55/56/28 56/57/28
f 56/57/28 57/58/29 58/59/29
f 60/60/30 57/58/29 59/61/30
f 60/60/30 61/62/31 62/63/31
f 62/63/31 63/64/32 64/65/32
f 30/1/1 63/64/32 29/66/1
f 30/1/1 29/66/1 32/2/2
f 27/4/3 31/3/2 32/2/2
f 25/6/4 27/4/3 28/5/3
f 23/8/5 25/6/4 26/7/4
f 23/8/5 24/9/5 22/10/6
f 21/11/6 22/10/6 20/12/7
f 17/14/8 19/13/7 20/12/7
f 15/16/9 17/14/8 18/15/8
f 15/16/9 16/17/9 14/18/10
f 13/19/10 14/18/10 12/20/11
f 9/22/12 11/67/11 12/23/11
f 9/22/12 10/24/12 8/25/13
f 7/26/13 8/25/13 6/27/14
f 5/28/14 6/27/14 4/29/15
f 1/31/16 3/30/15 4/29/15
f 34/33/17 1/31/16 2/32/16
f 34/33/17 33/34/17 35/35/18
f 38/37/19 36/36/18 35/35/18
f 38/37/19 37/38/19 39/39/20
f 40/40/20 39/39/20 41/41/21
f 44/43/22 42/42/21 41/41/21
f 44/43/22 43/44/22 45/45/23
f 46/46/23 45/45/23 47/47/24
f 50/49/25 48/48/24 47/47/24
f 50/49/25 49/50/25 51/51/26
f 54/53/27 52/52/26 51/51/26
f 54/55/27 53/68/27 55/56/28
f 56/57/28 55/56/28 57/58/29
f 60/60/30 58/59/29 57/58/29
f 60/60/30 59/61/30 61/62/31
f 62/63/31 61/62/31 63/64/32
f 30/1/1 64/65/32 63/64/32
