# Blender v2.77 (sub 0) OBJ File: 'cc_Window1x1_v1.blend'
# www.blender.org
mtllib cc_Window1x1_v1.mtl
o straight_Cube.002
v -1.250000 0.000000 -1.191373
v -1.250000 0.000000 -1.250000
v -1.250000 -1.250000 -1.250000
v -1.250000 -1.191373 -0.886381
v -1.250000 -1.168157 -1.003097
v -1.250000 -1.102043 -1.102043
v -1.250000 -1.003097 -1.168157
v -1.250000 -0.886381 -1.191373
v -1.250000 1.250000 -1.250000
v -1.250000 0.886381 -1.191373
v -1.250000 1.003097 -1.168157
v -1.250000 1.102043 -1.102043
v -1.250000 1.168157 -1.003097
v -1.250000 1.191373 -0.886381
v -0.937500 0.000000 -1.250000
v -0.937500 -1.250000 -1.250000
v -1.250000 0.000000 1.250000
v -1.250000 0.000000 1.191373
v -1.250000 -0.886381 1.191373
v -1.250000 -1.003097 1.168157
v -1.250000 -1.102043 1.102043
v -1.250000 -1.168157 1.003097
v -1.250000 -1.191373 0.886381
v -1.250000 -1.250000 1.250000
v -1.250000 1.250000 1.250000
v -1.250000 1.191373 0.886381
v -1.250000 1.168157 1.003097
v -1.250000 1.102043 1.102043
v -1.250000 1.003097 1.168157
v -1.250000 0.886381 1.191373
v -0.937500 1.250000 -1.250000
v -0.937500 0.000000 -1.191373
v -0.937500 -0.886381 -1.191373
v -0.937500 -1.003097 -1.168157
v -0.937500 -1.102043 -1.102043
v -0.937500 -1.168157 -1.003097
v -0.937500 -1.191373 -0.886381
v -0.937500 -1.250000 1.250000
v -0.937500 0.000000 1.250000
v -0.937500 1.250000 1.250000
v -0.937500 1.191373 -0.886381
v -0.937500 1.168157 -1.003097
v -0.937500 1.102043 -1.102043
v -0.937500 1.003097 -1.168157
v -0.937500 0.886381 -1.191373
v -0.937500 0.000000 1.191373
v -0.937500 -1.191373 0.886381
v -0.937500 -1.168157 1.003097
v -0.937500 -1.102043 1.102043
v -0.937500 -1.003097 1.168157
v -0.937500 -0.886381 1.191373
v -0.937500 0.886381 1.191373
v -0.937500 1.003097 1.168157
v -0.937500 1.102043 1.102043
v -0.937500 1.168157 1.003097
v -0.937500 1.191373 0.886381
v -1.276563 0.000000 -0.893530
v -1.510938 -0.664786 -0.893530
v -1.510938 -0.752322 0.876118
v -1.276563 -0.664786 0.893530
v -1.276563 -0.664786 -0.893530
v -1.510938 -0.752322 -0.876118
v -1.510938 -0.826532 0.826532
v -1.276563 -0.752322 0.876118
v -1.276563 -0.752322 -0.876118
v -1.510938 -0.826532 -0.826532
v -1.510938 -0.876118 0.752322
v -1.276563 -0.826532 0.826532
v -1.276563 -0.826532 -0.826532
v -1.510938 -0.876118 -0.752322
v -1.510938 -0.893530 0.664786
v -1.276563 -0.876118 -0.752322
v -1.510938 -0.893530 -0.664786
v -1.276563 -0.893530 -0.664786
v -1.276563 -0.876118 0.752322
v -1.276563 -0.893530 0.664786
v -1.276563 0.664786 -0.893530
v -1.276563 0.664786 0.893530
v -1.276563 0.000000 0.893530
v -1.510938 -0.664786 0.893530
v -1.510938 0.664786 -0.893530
v -1.510938 0.000000 -0.893530
v -1.276563 0.752322 -0.876118
v -1.276563 0.752322 0.876118
v -1.510938 0.000000 0.893530
v -1.510938 0.664786 0.893530
v -1.510938 0.752322 -0.876118
v -1.276563 0.826532 -0.826532
v -1.276563 0.826532 0.826532
v -1.510938 0.752322 0.876118
v -1.510938 0.826532 -0.826532
v -1.276563 0.876118 -0.752322
v -1.276563 0.876118 0.752322
v -1.510938 0.826532 0.826532
v -1.510938 0.876118 -0.752322
v -1.276563 0.893530 -0.664786
v -1.276563 0.893530 0.664786
v -1.510938 0.876118 0.752322
v -1.510938 0.893530 -0.664786
v -1.510938 0.893530 0.664786
v -1.443750 0.664786 -0.893530
v -1.343750 0.664786 -0.893530
v -1.343750 0.752322 0.876118
v -1.443750 0.752322 0.876118
v -1.343750 0.664786 0.893530
v -1.443750 0.664786 0.893530
v -1.343750 0.752322 -0.876118
v -1.443750 0.752322 -0.876118
v -1.443750 0.826532 -0.826532
v -1.343750 0.826532 -0.826532
v -1.343750 0.876118 0.752322
v -1.443750 0.876118 0.752322
v -1.443750 0.826532 0.826532
v -1.343750 0.826532 0.826532
v -1.343750 0.876118 -0.752322
v -1.443750 0.876118 -0.752322
v -1.443750 0.893530 -0.664786
v -1.343750 0.893530 -0.664786
v -1.443750 0.893530 0.664786
v -1.343750 0.893530 0.664786
v -1.343750 0.893530 0.000000
v -1.443750 0.893530 0.000000
v -1.343750 -0.826532 -0.826532
v -1.443750 -0.826532 -0.826532
v -1.443750 -0.876118 0.752322
v -1.343750 -0.876118 0.752322
v -1.343750 -0.826532 0.826532
v -1.443750 -0.826532 0.826532
v -1.443750 -0.876118 -0.752322
v -1.343750 -0.876118 -0.752322
v -1.343750 -0.893530 0.664786
v -1.443750 -0.893530 0.664786
v -1.443750 -0.752322 0.876118
v -1.343750 -0.752322 0.876118
v -1.443750 -0.664786 0.893530
v -1.343750 -0.664786 0.893530
v -1.343750 -0.664786 -0.893530
v -1.443750 -0.664786 -0.893530
v -1.343750 -0.893530 -0.664786
v -1.443750 -0.893530 -0.664786
v -1.443750 -0.893530 0.000000
v -1.343750 -0.893530 0.000000
v -1.343750 -0.752322 -0.876118
v -1.443750 -0.752322 -0.876118
vt 0.7193 0.6950
vt 0.7547 0.9780
vt 0.7193 0.9780
vt 0.7023 0.9781
vt 0.6668 0.6942
vt 0.7023 0.6942
vt 0.7107 0.5382
vt 0.7462 0.3964
vt 0.7462 0.5382
vt 0.0202 0.3972
vt 0.3084 0.3972
vt 0.0621 0.4039
vt 0.3084 0.6854
vt 0.0202 0.6854
vt 0.2665 0.6787
vt 0.7107 0.6801
vt 0.7462 0.6801
vt 0.6641 0.5382
vt 0.6996 0.3963
vt 0.6996 0.5382
vt 0.6641 0.6802
vt 0.6996 0.6802
vt 0.3684 0.4039
vt 0.3265 0.3972
vt 0.6147 0.3972
vt 0.6147 0.6854
vt 0.3265 0.6854
vt 0.5728 0.6787
vt 0.7547 0.6950
vt 0.6668 0.9781
vt 0.7107 0.3964
vt 0.0270 0.4391
vt 0.0270 0.5413
vt 0.0202 0.5413
vt 0.3084 0.5413
vt 0.3017 0.4391
vt 0.3017 0.5413
vt 0.0296 0.4256
vt 0.2990 0.4256
vt 0.2914 0.4142
vt 0.0373 0.4142
vt 0.0487 0.4066
vt 0.2800 0.4066
vt 0.2665 0.4039
vt 0.0270 0.6435
vt 0.3017 0.6435
vt 0.0296 0.6570
vt 0.0373 0.6684
vt 0.2990 0.6570
vt 0.2914 0.6684
vt 0.0487 0.6760
vt 0.0621 0.6787
vt 0.2800 0.6760
vt 0.6641 0.3963
vt 0.6147 0.5413
vt 0.6080 0.4391
vt 0.6080 0.5413
vt 0.3332 0.5413
vt 0.3265 0.5413
vt 0.3332 0.4391
vt 0.6053 0.4256
vt 0.5977 0.4142
vt 0.3359 0.4256
vt 0.3435 0.4142
vt 0.5862 0.4066
vt 0.5728 0.4039
vt 0.3549 0.4066
vt 0.3332 0.6435
vt 0.6080 0.6435
vt 0.3359 0.6570
vt 0.3435 0.6684
vt 0.6053 0.6570
vt 0.5977 0.6684
vt 0.3549 0.6760
vt 0.3684 0.6787
vt 0.5862 0.6760
vt 0.5679 0.6980
vt 0.3809 0.7339
vt 0.3542 0.6980
vt 0.6019 0.9626
vt 0.5607 0.9413
vt 0.5667 0.9324
vt 0.3542 0.9853
vt 0.5412 0.9494
vt 0.5679 0.9853
vt 0.3401 0.7008
vt 0.3614 0.7420
vt 0.3282 0.7088
vt 0.5820 0.7008
vt 0.5607 0.7420
vt 0.5518 0.7360
vt 0.3401 0.9825
vt 0.3614 0.9413
vt 0.3704 0.9473
vt 0.5820 0.9825
vt 0.5939 0.9745
vt 0.3202 0.7207
vt 0.3554 0.7510
vt 0.3202 0.9626
vt 0.3282 0.9745
vt 0.6047 0.9485
vt 0.5688 0.9218
vt 0.6047 0.8417
vt 0.5688 0.7615
vt 0.6047 0.7348
vt 0.5518 0.9473
vt 0.5688 0.8417
vt 0.5667 0.7510
vt 0.6019 0.7207
vt 0.5412 0.7339
vt 0.3174 0.9485
vt 0.3554 0.9324
vt 0.3704 0.7360
vt 0.5939 0.7088
vt 0.3174 0.8417
vt 0.3533 0.9218
vt 0.3174 0.7348
vt 0.3533 0.7615
vt 0.3533 0.8417
vt 0.3809 0.9494
vt 0.0800 0.9473
vt 0.2670 0.9832
vt 0.0533 0.9832
vt 0.0165 0.8395
vt 0.0525 0.7594
vt 0.0525 0.8395
vt 0.0525 0.9197
vt 0.0165 0.9464
vt 0.3010 0.9605
vt 0.2598 0.9392
vt 0.2658 0.9302
vt 0.0546 0.9302
vt 0.0193 0.9605
vt 0.0165 0.7327
vt 0.0546 0.7488
vt 0.2811 0.6987
vt 0.2598 0.7399
vt 0.2509 0.7339
vt 0.2811 0.9804
vt 0.2930 0.9724
vt 0.3038 0.8395
vt 0.2679 0.9197
vt 0.2679 0.8395
vt 0.2670 0.6959
vt 0.0800 0.7318
vt 0.0533 0.6959
vt 0.2679 0.7594
vt 0.3038 0.7327
vt 0.3010 0.7186
vt 0.2930 0.7067
vt 0.2509 0.9452
vt 0.0695 0.7339
vt 0.0392 0.6987
vt 0.2658 0.7488
vt 0.2403 0.7318
vt 0.0695 0.9452
vt 0.0193 0.7186
vt 0.0605 0.7399
vt 0.0392 0.9804
vt 0.0605 0.9392
vt 0.0273 0.7067
vt 0.3038 0.9464
vt 0.0273 0.9724
vt 0.2403 0.9473
vt 0.1981 0.1983
vt 0.1981 0.1881
vt 0.2036 0.1908
vt 0.2083 0.0561
vt 0.1989 0.0529
vt 0.2031 0.0485
vt 0.0415 0.0565
vt 0.0450 0.0662
vt 0.0390 0.0650
vt 0.1188 0.2062
vt 0.0616 0.2004
vt 0.1795 0.1996
vt 0.1271 0.0407
vt 0.1861 0.0476
vt 0.0651 0.0466
vt 0.0468 0.0487
vt 0.0471 0.0592
vt 0.2060 0.1824
vt 0.2025 0.1240
vt 0.2107 0.0651
vt 0.0437 0.1238
vt 0.0546 0.0429
vt 0.0515 0.0531
vt 0.1933 0.0491
vt 0.1955 0.0437
vt 0.0637 0.0400
vt 0.0577 0.0487
vt 0.1871 0.0417
vt 0.1900 0.2036
vt 0.1937 0.1937
vt 0.0447 0.1996
vt 0.0545 0.1986
vt 0.0523 0.2041
vt 0.0391 0.1924
vt 0.0486 0.1950
vt 0.1808 0.2061
vt 0.1872 0.1977
vt 0.0606 0.2062
vt 0.2000 0.1813
vt 0.0366 0.1835
vt 0.0446 0.1895
vt 0.2027 0.0588
vt 0.2043 0.0661
vt 0.0430 0.1824
vt 0.2489 0.2006
vt 0.2399 0.2046
vt 0.2419 0.1992
vt 0.2324 0.2000
vt 0.2364 0.1956
vt 0.3715 0.1969
vt 0.3658 0.2053
vt 0.3644 0.1989
vt 0.3819 0.1865
vt 0.3822 0.1968
vt 0.3776 0.1925
vt 0.3746 0.2025
vt 0.2271 0.1927
vt 0.2327 0.1899
vt 0.3840 0.1794
vt 0.3875 0.1891
vt 0.2246 0.1839
vt 0.2310 0.1828
vt 0.3818 0.0551
vt 0.3898 0.0613
vt 0.3833 0.0624
vt 0.2347 0.0595
vt 0.2338 0.0492
vt 0.2386 0.0533
vt 0.2513 0.0470
vt 0.3099 0.0396
vt 0.3656 0.0443
vt 0.3746 0.0405
vt 0.3725 0.0458
vt 0.2443 0.0489
vt 0.2500 0.0408
vt 0.3821 0.0450
vt 0.3781 0.0495
vt 0.3874 0.0524
vt 0.3053 0.2059
vt 0.2412 0.0434
vt 0.2328 0.0669
vt 0.2290 0.0572
vt 0.2316 0.1244
vt 0.2268 0.0658
vt 0.3839 0.1217
vt 0.3900 0.1805
vt 0.2481 0.2063
vt 0.3665 0.0386
vt 0.4709 0.0297
vt 0.4855 0.0150
vt 0.4855 0.0297
vt 0.8096 0.0297
vt 0.8242 0.0150
vt 0.8242 0.0297
vt 0.4563 0.0297
vt 0.4709 0.0150
vt 0.7804 0.0297
vt 0.7950 0.0150
vt 0.7950 0.0297
vt 0.8096 0.0150
vt 0.6403 0.0297
vt 0.7658 0.0150
vt 0.7658 0.0297
vt 0.7804 0.0150
vt 0.5001 0.0297
vt 0.5147 0.0150
vt 0.5147 0.0297
vt 0.6403 0.0150
vt 0.5001 0.0150
vt 0.0212 0.0297
vt 0.1468 0.0150
vt 0.1468 0.0297
vt 0.9790 0.0297
vt 0.9936 0.0150
vt 0.9936 0.0297
vt 0.9644 0.0297
vt 0.9790 0.0150
vt 0.2723 0.0297
vt 0.2869 0.0150
vt 0.2869 0.0297
vt 0.3015 0.0297
vt 0.3161 0.0150
vt 0.3161 0.0297
vt 0.0066 0.0297
vt 0.0212 0.0150
vt 0.3015 0.0150
vt 0.9498 0.0297
vt 0.9644 0.0150
vt 0.3307 0.0150
vt 0.3307 0.0297
vt 0.2723 0.0150
vt 0.9498 0.0150
vt 0.4563 0.0150
vt 0.0066 0.0150
vt 0.8384 0.3723
vt 0.7008 0.3371
vt 0.8384 0.0971
vt 0.5505 0.0932
vt 0.6881 0.3333
vt 0.5505 0.3685
vt 0.9761 0.3371
vt 0.9734 0.3506
vt 0.9657 0.3620
vt 0.9543 0.3696
vt 0.9408 0.3723
vt 0.7360 0.3723
vt 0.9761 0.1323
vt 0.9657 0.1074
vt 0.9734 0.1188
vt 0.9408 0.0971
vt 0.9543 0.0997
vt 0.7226 0.0997
vt 0.7360 0.0971
vt 0.7008 0.1323
vt 0.7226 0.3696
vt 0.7111 0.3620
vt 0.7035 0.3506
vt 0.7035 0.1188
vt 0.7111 0.1074
vt 0.4346 0.3658
vt 0.4232 0.3582
vt 0.4481 0.3685
vt 0.4156 0.3467
vt 0.4129 0.3333
vt 0.4129 0.1285
vt 0.4156 0.1150
vt 0.4232 0.1036
vt 0.4346 0.0959
vt 0.4481 0.0932
vt 0.6529 0.0932
vt 0.6881 0.1285
vt 0.6664 0.3658
vt 0.6529 0.3685
vt 0.6855 0.3467
vt 0.6664 0.0959
vt 0.6778 0.1036
vt 0.6855 0.1150
vt 0.6778 0.3582
vn 0.0000 -1.0000 0.0000
vn 0.0000 1.0000 0.0000
vn 0.0000 0.0000 -1.0000
vn 1.0000 -0.0000 0.0000
vn 0.0000 0.0000 1.0000
vn -1.0000 0.0000 0.0000
vn 0.6891 0.7193 0.0876
vn 0.6784 0.7328 -0.0530
vn 0.6891 0.7193 -0.0876
vn 0.7361 -0.2751 0.6184
vn 0.7544 -0.4642 0.4642
vn 0.7294 -0.2403 0.6405
vn 0.6891 -0.7193 -0.0876
vn 0.6784 -0.7328 0.0530
vn 0.6891 -0.7193 0.0876
vn 0.7361 0.6184 -0.2751
vn 0.7544 0.4642 -0.4642
vn 0.7361 0.6184 0.2751
vn 0.7544 0.4642 0.4642
vn 0.7294 0.6405 0.2403
vn 0.7361 -0.6184 -0.2751
vn 0.7544 -0.4642 -0.4642
vn 0.7294 -0.6405 -0.2403
vn 0.7361 -0.6184 0.2751
vn 0.7361 0.2751 -0.6184
vn 0.7294 0.2403 -0.6405
vn 0.7361 -0.2751 -0.6184
vn 0.6891 -0.0876 0.7193
vn 0.6784 -0.0530 0.7328
vn 0.6600 0.0000 0.7513
vn 0.6784 0.0530 0.7328
vn 0.6891 0.0876 0.7193
vn 0.7294 -0.6405 0.2403
vn 0.7294 0.2403 0.6405
vn 0.7361 0.2751 0.6184
vn 0.6784 0.7328 0.0530
vn 0.6891 -0.0876 -0.7193
vn 0.7294 -0.2403 -0.6405
vn 0.7294 0.6405 -0.2403
vn 0.6600 0.0000 -0.7513
vn 0.6784 -0.0530 -0.7328
vn 0.6891 0.0876 -0.7193
vn 0.6784 0.0530 -0.7328
vn 0.6784 -0.7328 -0.0530
vn -0.7675 0.6395 -0.0442
vn -0.7778 0.6238 0.0775
vn -0.7778 0.6238 -0.0775
vn -0.7522 0.0000 -0.6590
vn -0.7675 -0.0442 -0.6395
vn -0.7675 0.0442 -0.6395
vn -0.7778 0.0775 -0.6238
vn -0.8165 0.2359 0.5270
vn -0.8309 0.3935 0.3935
vn -0.8104 0.2035 0.5494
vn -0.8104 0.2035 -0.5494
vn -0.8165 0.2359 -0.5270
vn -0.7778 -0.0775 -0.6238
vn -0.8104 -0.2035 -0.5494
vn -0.8165 -0.5270 0.2359
vn -0.8309 -0.3935 0.3935
vn -0.8104 -0.5494 0.2035
vn -0.8165 0.5270 0.2359
vn -0.7522 0.0000 0.6590
vn -0.7675 0.0442 0.6395
vn -0.7778 -0.6238 0.0775
vn -0.7675 -0.6395 -0.0442
vn -0.7778 -0.6238 -0.0775
vn -0.7675 -0.0442 0.6395
vn -0.7778 -0.0775 0.6238
vn -0.8165 -0.2359 0.5270
vn -0.8104 0.5494 0.2035
vn -0.8104 -0.5494 -0.2035
vn -0.8165 -0.5270 -0.2359
vn -0.8104 -0.2035 0.5494
vn -0.7675 -0.6395 0.0442
vn -0.8104 0.5494 -0.2035
vn -0.8165 -0.2359 -0.5270
vn -0.8309 -0.3935 -0.3935
vn -0.8165 0.5270 -0.2359
vn -0.8309 0.3935 -0.3935
vn -0.7778 0.0775 0.6238
vn -0.7675 0.6395 0.0442
vn 0.0000 0.7071 0.7071
vn 0.0000 0.3827 0.9239
vn 0.0000 -0.3827 0.9239
vn 0.0000 -0.7071 0.7071
vn 0.0000 -0.3827 -0.9239
vn 0.0000 -0.0980 -0.9952
vn 0.0000 0.9952 -0.0980
vn 0.0000 0.9952 0.0980
vn 0.0000 -0.9952 0.0980
vn 0.0000 -0.9952 -0.0980
vn 0.0000 -0.7071 -0.7071
vn 0.0000 0.0980 0.9952
vn 0.0000 -0.0980 0.9952
vn 0.0000 -0.9239 -0.3827
vn 0.0000 -0.9239 0.3827
vn 0.0000 0.9239 0.3827
vn 0.0000 0.7071 -0.7071
vn 0.0000 0.9239 -0.3827
vn 0.0000 0.3827 -0.9239
vn 0.0000 0.0980 -0.9952
usemtl hull
s 1
f 3/1/1 38/2/1 24/3/1
f 31/4/2 25/5/2 40/6/2
f 15/7/3 3/8/3 2/9/3
f 38/10/4 16/11/4 47/12/4
f 31/13/4 40/14/4 41/15/4
f 31/16/3 2/9/3 9/17/3
f 17/18/5 38/19/5 39/20/5
f 25/21/5 39/20/5 40/22/5
f 4/23/6 3/24/6 24/25/6
f 25/26/6 9/27/6 26/28/6
f 3/1/1 16/29/1 38/2/1
f 31/4/2 9/30/2 25/5/2
f 15/7/3 16/31/3 3/8/3
f 51/32/4 46/33/4 39/34/4
f 16/11/4 15/35/4 33/36/4
f 15/35/4 32/37/4 33/36/4
f 51/32/4 39/34/4 38/10/4
f 50/38/4 51/32/4 38/10/4
f 16/11/4 33/36/4 34/39/4
f 16/11/4 34/39/4 35/40/4
f 49/41/4 50/38/4 38/10/4
f 48/42/4 49/41/4 38/10/4
f 16/11/4 35/40/4 36/43/4
f 16/11/4 36/43/4 37/44/4
f 47/12/4 48/42/4 38/10/4
f 16/11/4 37/44/4 47/12/4
f 40/14/4 39/34/4 52/45/4
f 39/34/4 46/33/4 52/45/4
f 32/37/4 15/35/4 45/46/4
f 45/46/4 15/35/4 31/13/4
f 40/14/4 52/45/4 53/47/4
f 40/14/4 53/47/4 54/48/4
f 44/49/4 45/46/4 31/13/4
f 43/50/4 44/49/4 31/13/4
f 40/14/4 54/48/4 55/51/4
f 40/14/4 55/51/4 56/52/4
f 42/53/4 43/50/4 31/13/4
f 40/14/4 56/52/4 41/15/4
f 41/15/4 42/53/4 31/13/4
f 31/16/3 15/7/3 2/9/3
f 17/18/5 24/54/5 38/19/5
f 25/21/5 17/18/5 39/20/5
f 24/25/6 17/55/6 19/56/6
f 17/55/6 18/57/6 19/56/6
f 1/58/6 2/59/6 8/60/6
f 8/60/6 2/59/6 3/24/6
f 24/25/6 19/56/6 20/61/6
f 24/25/6 20/61/6 21/62/6
f 7/63/6 8/60/6 3/24/6
f 6/64/6 7/63/6 3/24/6
f 24/25/6 21/62/6 22/65/6
f 24/25/6 22/65/6 23/66/6
f 5/67/6 6/64/6 3/24/6
f 24/25/6 23/66/6 4/23/6
f 4/23/6 5/67/6 3/24/6
f 9/27/6 2/59/6 10/68/6
f 2/59/6 1/58/6 10/68/6
f 18/57/6 17/55/6 30/69/6
f 30/69/6 17/55/6 25/26/6
f 9/27/6 10/68/6 11/70/6
f 9/27/6 11/70/6 12/71/6
f 29/72/6 30/69/6 25/26/6
f 28/73/6 29/72/6 25/26/6
f 9/27/6 12/71/6 13/74/6
f 9/27/6 13/74/6 14/75/6
f 27/76/6 28/73/6 25/26/6
f 9/27/6 14/75/6 26/28/6
f 26/28/6 27/76/6 25/26/6
s 2
f 37/77/7 76/78/8 47/79/9
f 44/80/10 88/81/11 83/82/12
f 56/83/13 96/84/14 41/85/15
f 48/86/16 68/87/17 49/88/17
f 36/89/18 69/90/19 72/91/20
f 55/92/21 89/93/22 93/94/23
f 42/95/24 88/81/11 43/96/11
f 50/97/25 68/87/17 64/98/26
f 53/99/27 89/93/22 54/100/22
f 45/101/28 83/82/12 77/102/29
f 32/103/30 61/104/31 33/105/32
f 41/85/15 92/106/33 42/95/24
f 32/103/30 77/102/29 57/107/30
f 33/105/32 65/108/34 34/109/35
f 37/77/7 72/91/20 74/110/36
f 52/111/37 84/112/38 53/99/27
f 47/79/9 75/113/39 48/86/16
f 34/109/35 69/90/19 35/114/19
f 46/115/40 78/116/41 52/111/37
f 51/117/42 64/98/26 60/118/43
f 46/115/40 60/118/43 79/119/40
f 56/83/13 93/94/23 97/120/44
f 37/77/7 74/110/36 76/78/8
f 44/80/10 43/96/11 88/81/11
f 56/83/13 97/120/44 96/84/14
f 48/86/16 75/113/39 68/87/17
f 36/89/18 35/114/19 69/90/19
f 55/92/21 54/100/22 89/93/22
f 42/95/24 92/106/33 88/81/11
f 50/97/25 49/88/17 68/87/17
f 53/99/27 84/112/38 89/93/22
f 45/101/28 44/80/10 83/82/12
f 32/103/30 57/107/30 61/104/31
f 41/85/15 96/84/14 92/106/33
f 32/103/30 45/101/28 77/102/29
f 33/105/32 61/104/31 65/108/34
f 37/77/7 36/89/18 72/91/20
f 52/111/37 78/116/41 84/112/38
f 47/79/9 76/78/8 75/113/39
f 34/109/35 65/108/34 69/90/19
f 46/115/40 79/119/40 78/116/41
f 51/117/42 50/97/25 64/98/26
f 46/115/40 51/117/42 60/118/43
f 56/83/13 55/92/21 93/94/23
s 3
f 99/121/45 26/122/46 14/123/47
f 1/124/48 58/125/49 82/126/48
f 1/124/48 81/127/50 10/128/51
f 29/129/52 94/130/53 90/131/54
f 10/128/51 87/132/55 11/133/56
f 8/134/57 62/135/58 58/125/49
f 22/136/59 63/137/60 67/138/61
f 27/139/62 94/130/53 28/140/53
f 18/141/63 86/142/64 85/143/63
f 23/144/65 73/145/66 4/146/67
f 18/141/63 80/147/68 19/148/69
f 20/149/70 63/137/60 21/150/60
f 26/122/46 98/151/71 27/139/62
f 4/146/67 70/152/72 5/153/73
f 19/148/69 59/154/74 20/149/70
f 23/144/65 67/138/61 71/155/75
f 14/123/47 95/156/76 99/121/45
f 7/157/77 66/158/78 62/135/58
f 13/159/79 91/160/80 95/156/76
f 5/153/73 66/158/78 6/161/78
f 30/162/81 90/131/54 86/142/64
f 11/133/56 91/160/80 12/163/80
f 99/121/45 100/164/82 26/122/46
f 1/124/48 8/134/57 58/125/49
f 1/124/48 82/126/48 81/127/50
f 29/129/52 28/140/53 94/130/53
f 10/128/51 81/127/50 87/132/55
f 8/134/57 7/157/77 62/135/58
f 22/136/59 21/150/60 63/137/60
f 27/139/62 98/151/71 94/130/53
f 18/141/63 30/162/81 86/142/64
f 23/144/65 71/155/75 73/145/66
f 18/141/63 85/143/63 80/147/68
f 20/149/70 59/154/74 63/137/60
f 26/122/46 100/164/82 98/151/71
f 4/146/67 73/145/66 70/152/72
f 19/148/69 80/147/68 59/154/74
f 23/144/65 22/136/59 67/138/61
f 14/123/47 13/159/79 95/156/76
f 7/157/77 6/161/78 66/158/78
f 13/159/79 12/163/80 91/160/80
f 5/153/73 70/152/72 66/158/78
f 30/162/81 29/129/52 90/131/54
f 11/133/56 87/132/55 91/160/80
usemtl hull2
s 2
f 123/165/83 65/166/84 143/167/84
f 107/168/85 88/169/86 110/170/86
f 103/171/87 78/172/88 105/173/88
f 142/174/2 76/175/89 74/176/90
f 121/177/1 96/178/91 97/179/92
f 114/180/93 84/181/87 103/171/87
f 137/182/94 57/183/5 102/184/95
f 105/173/88 78/172/88 79/185/3
f 111/186/96 89/187/93 114/180/93
f 110/170/86 92/188/97 115/189/97
f 120/190/92 93/191/96 111/186/96
f 115/189/97 96/178/91 118/192/91
f 130/193/98 69/194/83 123/165/83
f 127/195/99 75/196/100 126/197/100
f 134/198/101 68/199/99 127/195/99
f 139/200/90 72/201/98 130/193/98
f 126/197/100 76/175/89 131/202/89
f 143/167/84 61/203/94 137/182/94
f 136/204/102 64/205/101 134/198/101
f 102/184/95 83/206/85 107/168/85
f 123/165/83 69/194/83 65/166/84
f 107/168/85 83/206/85 88/169/86
f 103/171/87 84/181/87 78/172/88
f 74/176/90 139/200/90 142/174/2
f 142/174/2 131/202/89 76/175/89
f 97/179/92 120/190/92 121/177/1
f 121/177/1 118/192/91 96/178/91
f 114/180/93 89/187/93 84/181/87
f 77/207/95 102/184/95 57/183/5
f 137/182/94 61/203/94 57/183/5
f 79/185/3 60/208/102 136/204/102
f 136/204/102 105/173/88 79/185/3
f 111/186/96 93/191/96 89/187/93
f 110/170/86 88/169/86 92/188/97
f 120/190/92 97/179/92 93/191/96
f 115/189/97 92/188/97 96/178/91
f 130/193/98 72/201/98 69/194/83
f 127/195/99 68/199/99 75/196/100
f 134/198/101 64/205/101 68/199/99
f 139/200/90 74/176/90 72/201/98
f 126/197/100 75/196/100 76/175/89
f 143/167/84 65/166/84 61/203/94
f 136/204/102 60/208/102 64/205/101
f 102/184/95 77/207/95 83/206/85
s 3
f 100/209/92 112/210/96 98/211/96
f 98/211/96 113/212/93 94/213/93
f 95/214/97 117/215/91 99/216/91
f 87/217/85 109/218/86 91/219/86
f 91/219/86 116/220/97 95/214/97
f 94/213/93 104/221/87 90/222/87
f 81/223/95 108/224/85 87/217/85
f 90/222/87 106/225/88 86/226/88
f 62/227/84 138/228/94 58/229/94
f 59/230/101 128/231/99 63/232/99
f 71/233/89 141/234/2 73/235/90
f 73/235/90 129/236/98 70/237/98
f 67/238/100 132/239/89 71/233/89
f 70/237/98 124/240/83 66/241/83
f 66/241/83 144/242/84 62/227/84
f 99/216/91 122/243/1 100/209/92
f 63/232/99 125/244/100 67/238/100
f 80/245/102 133/246/101 59/230/101
f 80/245/102 85/247/3 135/248/102
f 82/249/5 138/228/94 101/250/95
f 100/209/92 119/251/92 112/210/96
f 98/211/96 112/210/96 113/212/93
f 95/214/97 116/220/97 117/215/91
f 87/217/85 108/224/85 109/218/86
f 91/219/86 109/218/86 116/220/97
f 94/213/93 113/212/93 104/221/87
f 81/223/95 101/250/95 108/224/85
f 90/222/87 104/221/87 106/225/88
f 62/227/84 144/242/84 138/228/94
f 59/230/101 133/246/101 128/231/99
f 140/252/90 73/235/90 141/234/2
f 71/233/89 132/239/89 141/234/2
f 73/235/90 140/252/90 129/236/98
f 67/238/100 125/244/100 132/239/89
f 70/237/98 129/236/98 124/240/83
f 66/241/83 124/240/83 144/242/84
f 119/251/92 100/209/92 122/243/1
f 99/216/91 117/215/91 122/243/1
f 63/232/99 128/231/99 125/244/100
f 80/245/102 135/248/102 133/246/101
f 106/225/88 135/248/102 85/247/3
f 85/247/3 86/226/88 106/225/88
f 101/250/95 81/223/95 82/249/5
f 82/249/5 58/229/94 138/228/94
usemtl inside
s 4
f 103/253/87 113/254/93 114/255/93
f 107/256/85 101/257/95 102/258/95
f 105/259/88 104/260/87 103/253/87
f 115/261/97 109/262/86 110/263/86
f 110/263/86 108/264/85 107/256/85
f 121/265/1 117/266/91 118/267/91
f 118/267/91 116/268/97 115/261/97
f 111/269/96 119/270/92 120/271/92
f 120/271/92 122/272/1 121/265/1
f 114/255/93 112/273/96 111/269/96
f 139/274/90 141/275/2 142/276/2
f 123/277/83 129/278/98 130/279/98
f 143/280/84 124/281/83 123/277/83
f 131/282/89 125/283/100 126/284/100
f 127/285/99 133/286/101 134/287/101
f 130/288/98 140/289/90 139/274/90
f 126/284/100 128/290/99 127/285/99
f 137/291/94 144/292/84 143/280/84
f 134/287/101 135/293/102 136/294/102
f 142/276/2 132/295/89 131/282/89
f 102/258/95 138/296/94 137/291/94
f 106/297/88 136/294/102 135/293/102
f 103/253/87 104/260/87 113/254/93
f 107/256/85 108/264/85 101/257/95
f 105/259/88 106/297/88 104/260/87
f 115/261/97 116/268/97 109/262/86
f 110/263/86 109/262/86 108/264/85
f 121/265/1 122/272/1 117/266/91
f 118/267/91 117/266/91 116/268/97
f 111/269/96 112/273/96 119/270/92
f 120/271/92 119/270/92 122/272/1
f 114/255/93 113/254/93 112/273/96
f 139/274/90 140/289/90 141/275/2
f 123/277/83 124/281/83 129/278/98
f 143/280/84 144/292/84 124/281/83
f 131/282/89 132/295/89 125/283/100
f 127/285/99 128/290/99 133/286/101
f 130/288/98 129/298/98 140/289/90
f 126/284/100 125/283/100 128/290/99
f 137/291/94 138/296/94 144/292/84
f 134/287/101 133/286/101 135/293/102
f 142/276/2 141/275/2 132/295/89
f 102/258/95 101/257/95 138/296/94
f 106/297/88 105/259/88 136/294/102
usemtl glass
s off
f 122/299/6 101/300/6 141/301/6
f 142/302/4 102/303/4 121/304/4
f 106/305/6 104/306/6 113/307/6
f 113/307/6 112/308/6 119/309/6
f 122/299/6 117/310/6 101/300/6
f 113/307/6 119/309/6 106/305/6
f 135/311/6 106/305/6 141/301/6
f 128/312/6 133/313/6 135/311/6
f 132/314/6 125/315/6 128/312/6
f 129/316/6 140/317/6 138/318/6
f 141/301/6 132/314/6 135/311/6
f 128/312/6 135/311/6 132/314/6
f 119/309/6 122/299/6 106/305/6
f 116/319/6 109/320/6 108/321/6
f 108/321/6 101/300/6 117/310/6
f 138/318/6 144/322/6 124/323/6
f 124/323/6 129/316/6 138/318/6
f 141/301/6 106/305/6 122/299/6
f 117/310/6 116/319/6 108/321/6
f 101/300/6 138/318/6 141/301/6
f 140/317/6 141/301/6 138/318/6
f 111/324/4 114/325/4 120/326/4
f 103/327/4 105/328/4 120/326/4
f 136/329/4 134/330/4 127/331/4
f 127/331/4 126/332/4 131/333/4
f 142/302/4 139/334/4 137/335/4
f 127/331/4 131/333/4 136/329/4
f 105/328/4 136/329/4 142/302/4
f 120/326/4 114/325/4 103/327/4
f 115/336/4 118/337/4 107/338/4
f 121/304/4 120/326/4 105/328/4
f 136/329/4 131/333/4 142/302/4
f 139/334/4 130/339/4 137/335/4
f 123/340/4 143/341/4 137/335/4
f 137/335/4 102/303/4 142/302/4
f 107/338/4 110/342/4 115/336/4
f 118/337/4 102/303/4 107/338/4
f 105/328/4 142/302/4 121/304/4
f 123/340/4 137/335/4 130/339/4
f 118/337/4 121/304/4 102/303/4
