# Blender v2.77 (sub 0) OBJ File: 'cc_Window1x2Diag_v1.blend'
# www.blender.org
mtllib cc_Window1x2Diag_v1.mtl
o diagonal.001_Cube.000
v 0.937302 0.000000 2.499998
v 0.937302 -1.250000 2.499998
v 1.249999 0.000000 2.499998
v 1.249999 -1.250000 2.499998
v 0.937302 1.250000 2.499998
v 0.788189 0.000000 2.201773
v 0.788189 -0.886382 2.201773
v 0.775282 -1.003097 2.175959
v 0.738527 -1.102044 2.102448
v 0.683518 -1.168157 1.992432
v 0.618631 -1.191373 1.862658
v -1.119295 -1.191373 -1.613189
v -1.184182 -1.168157 -1.742963
v -1.239191 -1.102044 -1.852980
v -1.275946 -1.003097 -1.926491
v -1.288853 -0.886382 -1.952304
v -1.288853 0.000000 -1.952304
v -1.562701 0.000000 -2.500000
v -1.562701 -1.250000 -2.500000
v -1.250003 -1.250000 -2.499998
v -1.250003 0.000000 -2.499998
v -1.038524 0.000000 -2.077040
v -1.038524 -0.886382 -2.077040
v -1.025617 -1.003097 -2.051227
v -0.988861 -1.102044 -1.977716
v -0.933853 -1.168157 -1.867699
v -0.868966 -1.191373 -1.737925
v -0.733726 0.000000 -1.590747
v 0.868960 -1.191373 1.737922
v 0.933847 -1.168157 1.867696
v 0.988856 -1.102044 1.977713
v 1.025611 -1.003097 2.051223
v 1.038518 -0.886382 2.077037
v 1.038518 0.000000 2.077037
v 1.249999 1.250000 2.499998
v -1.562701 1.250000 -2.500000
v -1.288853 0.886382 -1.952304
v -1.275946 1.003097 -1.926491
v -1.239191 1.102044 -1.852980
v -1.184182 1.168157 -1.742963
v -1.119295 1.191373 -1.613189
v 0.618631 1.191373 1.862658
v 0.683518 1.168157 1.992432
v 0.738527 1.102044 2.102448
v 0.775282 1.003097 2.175959
v 0.788189 0.886382 2.201773
v 1.038518 0.886382 2.077037
v 1.025611 1.003097 2.051223
v 0.988856 1.102044 1.977713
v 0.933847 1.168157 1.867696
v 0.868960 1.191373 1.737922
v -0.733726 -0.664786 -1.590747
v -0.868966 1.191373 -1.737925
v -0.933853 1.168157 -1.867699
v -0.988861 1.102044 -1.977716
v -1.025617 1.003097 -2.051227
v -1.038524 0.886382 -2.077040
v -1.250003 1.250000 -2.499998
v -0.724046 -0.752323 -1.571387
v -0.696479 -0.826533 -1.516254
v -0.655223 -0.876118 -1.433741
v -0.606558 -0.893530 -1.336411
v 0.696887 -0.893530 1.270475
v 0.745553 -0.876118 1.367805
v 0.786809 -0.826533 1.450317
v 0.814375 -0.752323 1.505451
v 0.824056 -0.664786 1.524811
v 0.824056 0.000000 1.524811
v -0.545979 0.000000 -1.684299
v -0.545979 -0.664786 -1.684299
v -0.536299 -0.752323 -1.664939
v -0.508732 -0.826533 -1.609806
v -0.467476 -0.876118 -1.527294
v -0.418811 -0.893530 -1.429963
v 0.884634 -0.893530 1.176923
v 0.933299 -0.876118 1.274253
v 0.974556 -0.826533 1.356766
v 1.002122 -0.752323 1.411898
v 1.011802 -0.664786 1.431259
v 1.011802 0.000000 1.431259
v -0.733726 0.664786 -1.590747
v -0.724046 0.752323 -1.571387
v -0.696479 0.826533 -1.516254
v -0.655223 0.876118 -1.433741
v -0.606558 0.893530 -1.336411
v 0.696887 0.893530 1.270475
v 0.745553 0.876118 1.367805
v 0.786809 0.826533 1.450317
v 0.814375 0.752323 1.505451
v 0.824056 0.664786 1.524811
v 1.011802 0.664786 1.431259
v 1.002122 0.752323 1.411898
v 0.974556 0.826533 1.356766
v 0.933299 0.876118 1.274253
v 0.884634 0.893530 1.176923
v -0.418811 0.893530 -1.429963
v -0.467476 0.876118 -1.527294
v -0.508732 0.826533 -1.609806
v -0.536299 0.752323 -1.664939
v -0.545979 0.664786 -1.684299
v -0.467932 -0.893530 -1.405486
v -0.557436 -0.893530 -1.360888
v -0.516597 -0.876118 -1.502817
v -0.606101 -0.876118 -1.458218
v 0.746009 -0.893530 1.245998
v 0.835513 -0.893530 1.201399
v -0.557854 -0.826533 -1.585329
v -0.647358 -0.826533 -1.540731
v 0.794674 -0.876118 1.343328
v 0.884178 -0.876118 1.298730
v -0.585420 -0.752323 -1.640462
v -0.674924 -0.752323 -1.595863
v 0.835930 -0.826533 1.425841
v 0.925434 -0.826533 1.381242
v -0.595101 -0.664786 -1.659823
v -0.684604 -0.664786 -1.615224
v 0.863497 -0.752323 1.480974
v 0.953001 -0.752323 1.436375
v 0.873177 -0.664786 1.500334
v 0.962681 -0.664786 1.455735
v -0.684604 0.664786 -1.615224
v -0.595101 0.664786 -1.659823
v 0.962681 0.664786 1.455735
v 0.873177 0.664786 1.500334
v -0.585420 0.752323 -1.640462
v -0.674924 0.752323 -1.595864
v -0.557854 0.826533 -1.585329
v -0.647358 0.826533 -1.540731
v 0.953001 0.752323 1.436375
v 0.863497 0.752323 1.480974
v 0.925434 0.826533 1.381242
v 0.835930 0.826533 1.425841
v -0.606101 0.876118 -1.458218
v -0.516597 0.876118 -1.502817
v -0.557436 0.893530 -1.360888
v -0.467932 0.893530 -1.405486
v 0.884178 0.876118 1.298730
v 0.794674 0.876118 1.343328
v 0.835513 0.893530 1.201399
v 0.746009 0.893530 1.245998
vt 0.9489 0.7581
vt 0.9742 0.6534
vt 0.9742 0.7581
vt 0.1120 0.5174
vt 0.5314 0.5355
vt 0.1015 0.5390
vt 0.5155 0.5579
vt 0.4326 0.5529
vt 0.9000 0.5529
vt 0.9826 0.5147
vt 0.5634 0.5361
vt 0.5527 0.5146
vt 0.4318 0.7819
vt 0.8992 0.7819
vt 0.5031 0.7868
vt 0.9491 0.8839
vt 0.9744 0.7792
vt 0.9744 0.8839
vt 0.9000 0.7623
vt 0.5155 0.7574
vt 0.8404 0.7574
vt 0.9491 0.9886
vt 0.9744 0.9886
vt 0.8280 0.9864
vt 0.8992 0.9913
vt 0.5031 0.9864
vt 0.9489 0.6534
vt 0.9742 0.5487
vt 0.5420 0.5139
vt 0.9000 0.6576
vt 0.8721 0.5834
vt 0.8721 0.6576
vt 0.4838 0.6576
vt 0.4326 0.6576
vt 0.4838 0.5834
vt 0.8697 0.5736
vt 0.8628 0.5653
vt 0.4862 0.5736
vt 0.4931 0.5653
vt 0.8526 0.5598
vt 0.8404 0.5579
vt 0.5034 0.5598
vt 0.9934 0.5362
vt 0.4714 0.8866
vt 0.4318 0.8866
vt 0.4714 0.8123
vt 0.8992 0.8866
vt 0.8597 0.8123
vt 0.8597 0.8866
vt 0.4738 0.8026
vt 0.8573 0.8026
vt 0.8504 0.7943
vt 0.4807 0.7943
vt 0.4910 0.7887
vt 0.8401 0.7887
vt 0.8280 0.7868
vt 0.9491 0.7792
vt 0.4326 0.7623
vt 0.4838 0.7319
vt 0.8721 0.7319
vt 0.4862 0.7417
vt 0.4931 0.7499
vt 0.8697 0.7417
vt 0.8628 0.7499
vt 0.5034 0.7555
vt 0.8526 0.7555
vt 0.4318 0.9913
vt 0.4714 0.9608
vt 0.8597 0.9608
vt 0.4738 0.9706
vt 0.4807 0.9789
vt 0.8573 0.9706
vt 0.8504 0.9789
vt 0.4910 0.9844
vt 0.8401 0.9844
vt 0.9489 0.5487
vt 0.3986 0.8930
vt 0.3510 0.8373
vt 0.3986 0.8188
vt 0.0420 0.9928
vt 0.3272 0.9679
vt 0.3669 0.9928
vt 0.0745 0.9664
vt 0.0836 0.9679
vt 0.0299 0.9909
vt 0.0668 0.9623
vt 0.0196 0.9853
vt 0.0616 0.9560
vt 0.0103 0.9673
vt 0.0127 0.9770
vt 0.0103 0.8930
vt 0.0598 0.9487
vt 0.0598 0.8373
vt 0.0598 0.8930
vt 0.0103 0.8188
vt 0.0616 0.8300
vt 0.3363 0.9664
vt 0.3790 0.9909
vt 0.3492 0.8300
vt 0.3962 0.8090
vt 0.3441 0.9623
vt 0.3893 0.9853
vt 0.3893 0.8007
vt 0.3441 0.8238
vt 0.3492 0.9560
vt 0.3962 0.9770
vt 0.3790 0.7952
vt 0.3363 0.8196
vt 0.3986 0.9673
vt 0.3510 0.9487
vt 0.3669 0.7932
vt 0.3272 0.8182
vt 0.3510 0.8930
vt 0.0420 0.7932
vt 0.0745 0.8196
vt 0.0299 0.7952
vt 0.0668 0.8238
vt 0.0196 0.8007
vt 0.0127 0.8090
vt 0.0836 0.8182
vt 0.3888 0.5649
vt 0.3472 0.5941
vt 0.3420 0.5879
vt 0.3981 0.5829
vt 0.3957 0.5731
vt 0.3981 0.6572
vt 0.3490 0.6015
vt 0.3490 0.7128
vt 0.3490 0.6572
vt 0.3981 0.7314
vt 0.3472 0.7202
vt 0.3888 0.7495
vt 0.3957 0.7412
vt 0.3785 0.7550
vt 0.3420 0.7264
vt 0.3664 0.7569
vt 0.3343 0.7305
vt 0.0816 0.7320
vt 0.0415 0.7569
vt 0.0725 0.7305
vt 0.0294 0.7550
vt 0.0647 0.7264
vt 0.3785 0.5593
vt 0.3343 0.5838
vt 0.3664 0.5574
vt 0.3252 0.5823
vt 0.0816 0.5823
vt 0.0415 0.5574
vt 0.0725 0.5838
vt 0.0294 0.5593
vt 0.0647 0.5879
vt 0.0191 0.5649
vt 0.0098 0.6572
vt 0.0578 0.7128
vt 0.0098 0.7314
vt 0.0596 0.5941
vt 0.0122 0.5731
vt 0.0596 0.7202
vt 0.0122 0.7412
vt 0.0098 0.5829
vt 0.0578 0.6015
vt 0.0191 0.7495
vt 0.0578 0.6572
vt 0.3252 0.7320
vt 0.5441 0.4527
vt 0.5053 0.4214
vt 0.5441 0.2084
vt 0.0130 0.4218
vt 0.0130 0.2401
vt 0.0518 0.4531
vt 0.5293 0.2107
vt 0.5053 0.2396
vt 0.9418 0.2084
vt 0.9567 0.2107
vt 0.9806 0.2396
vt 0.9693 0.2175
vt 0.9777 0.2277
vt 0.9806 0.4214
vt 0.9418 0.4527
vt 0.9777 0.4333
vt 0.9693 0.4435
vt 0.9567 0.4503
vt 0.5293 0.4503
vt 0.5167 0.4435
vt 0.5083 0.4333
vt 0.5083 0.2277
vt 0.5167 0.2175
vt 0.0518 0.2088
vt 0.4495 0.2088
vt 0.4495 0.4531
vt 0.4644 0.2112
vt 0.4770 0.2180
vt 0.4883 0.2401
vt 0.4854 0.2281
vt 0.4883 0.4218
vt 0.4854 0.4338
vt 0.4770 0.4439
vt 0.4644 0.4507
vt 0.0369 0.4507
vt 0.0244 0.4439
vt 0.0159 0.4338
vt 0.0159 0.2281
vt 0.0244 0.2180
vt 0.0369 0.2112
vt 0.3580 0.1501
vt 0.3546 0.1074
vt 0.3586 0.0649
vt 0.5758 0.0489
vt 0.5797 0.0558
vt 0.5742 0.0523
vt 0.5824 0.0530
vt 0.5834 0.0604
vt 0.5867 0.0587
vt 0.5853 0.0655
vt 0.5911 0.1064
vt 0.5899 0.1470
vt 0.5919 0.1534
vt 0.5932 0.1474
vt 0.3673 0.1660
vt 0.3752 0.1637
vt 0.3747 0.1674
vt 0.5879 0.1588
vt 0.5887 0.1520
vt 0.5814 0.1630
vt 0.5853 0.1562
vt 0.5737 0.1653
vt 0.5798 0.1595
vt 0.5729 0.1615
vt 0.5682 0.0470
vt 0.5675 0.0507
vt 0.3762 0.0472
vt 0.3607 0.1626
vt 0.3684 0.1626
vt 0.3562 0.1573
vt 0.3629 0.1597
vt 0.3699 0.0524
vt 0.3618 0.0525
vt 0.3686 0.0489
vt 0.3767 0.0508
vt 0.3602 0.0598
vt 0.3549 0.0641
vt 0.3571 0.0578
vt 0.3641 0.0555
vt 0.3543 0.1508
vt 0.3594 0.1555
vt 0.5887 0.0647
vt 0.5868 0.0663
vt 0.5907 0.1088
vt 0.5871 0.1515
vt 0.5852 0.0612
vt 0.5905 0.0656
vt 0.5813 0.0569
vt 0.5884 0.0592
vt 0.3542 0.1071
vt 0.3601 0.0662
vt 0.3553 0.1477
vt 0.3532 0.1541
vt 0.3564 0.1527
vt 0.3573 0.1595
vt 0.3598 0.1569
vt 0.3637 0.1637
vt 0.3654 0.1603
vt 0.3714 0.1661
vt 0.3722 0.1622
vt 0.5687 0.0521
vt 0.5769 0.0502
vt 0.5756 0.0537
vt 0.5836 0.0539
vt 0.3712 0.0531
vt 0.3773 0.0477
vt 0.3779 0.0515
vt 0.5693 0.0485
vt 0.3657 0.0565
vt 0.3697 0.0496
vt 0.3620 0.0611
vt 0.3631 0.0537
vt 0.3587 0.0594
vt 0.5704 0.1687
vt 0.5699 0.1651
vt 0.5779 0.1674
vt 0.5822 0.1611
vt 0.5890 0.1587
vt 0.5845 0.1640
vt 0.5767 0.1639
vt 0.5858 0.1569
vt 0.5909 0.1522
vt 0.3519 0.1481
vt 0.3567 0.0654
vt 0.6847 0.0175
vt 0.9946 0.0080
vt 0.9946 0.0175
vt 0.0078 0.0175
vt 0.0174 0.0080
vt 0.0174 0.0175
vt 0.0174 0.0175
vt 0.0270 0.0080
vt 0.0270 0.0175
vt 0.0270 0.0175
vt 0.0366 0.0080
vt 0.0366 0.0175
vt 0.0366 0.0175
vt 0.0462 0.0080
vt 0.0462 0.0175
vt 0.6751 0.0175
vt 0.6847 0.0080
vt 0.6847 0.0175
vt 0.6655 0.0175
vt 0.6751 0.0080
vt 0.6751 0.0175
vt 0.6560 0.0175
vt 0.6655 0.0080
vt 0.6655 0.0175
vt 0.6464 0.0175
vt 0.6560 0.0080
vt 0.6560 0.0175
vt 0.1914 0.0080
vt 0.5012 0.0175
vt 0.1914 0.0175
vt 0.5012 0.0080
vt 0.5108 0.0175
vt 0.5012 0.0175
vt 0.5108 0.0080
vt 0.5204 0.0175
vt 0.5108 0.0175
vt 0.5204 0.0080
vt 0.5300 0.0175
vt 0.5204 0.0175
vt 0.5300 0.0080
vt 0.5396 0.0175
vt 0.5300 0.0175
vt 0.1914 0.0175
vt 0.1818 0.0080
vt 0.1914 0.0080
vt 0.1626 0.0175
vt 0.1530 0.0080
vt 0.1626 0.0080
vt 0.1722 0.0175
vt 0.1626 0.0080
vt 0.1722 0.0080
vt 0.1818 0.0175
vt 0.1722 0.0080
vt 0.1818 0.0080
vt 0.0462 0.0175
vt 0.1530 0.0080
vt 0.1530 0.0175
vt 0.6464 0.0080
vt 0.5396 0.0175
vt 0.5396 0.0080
vt 0.6847 0.0080
vt 0.0078 0.0080
vt 0.0174 0.0080
vt 0.0270 0.0080
vt 0.0366 0.0080
vt 0.6751 0.0080
vt 0.6655 0.0080
vt 0.6560 0.0080
vt 0.6464 0.0080
vt 0.5012 0.0080
vt 0.5108 0.0080
vt 0.5204 0.0080
vt 0.5300 0.0080
vt 0.5396 0.0080
vt 0.1818 0.0175
vt 0.1530 0.0175
vt 0.1626 0.0175
vt 0.1722 0.0175
vt 0.0462 0.0080
vt 0.6464 0.0175
vn -0.0000 0.0000 1.0000
vn 0.0000 -1.0000 -0.0000
vn -0.8944 0.0000 0.4472
vn 0.0000 1.0000 -0.0000
vn 0.8944 -0.0000 -0.4472
vn 0.0000 0.0000 -1.0000
vn -0.9986 0.0000 -0.0529
vn -0.9981 0.0497 -0.0366
vn -0.9974 0.0649 -0.0316
vn -0.6115 -0.6856 0.3950
vn -0.6267 -0.7263 0.2825
vn -0.6852 -0.6830 0.2530
vn -0.6228 -0.6119 0.4875
vn -0.6014 -0.7265 0.3324
vn -0.6266 -0.5431 0.5589
vn -0.6230 -0.4224 0.6584
vn -0.6194 -0.3812 0.6863
vn -0.5963 -0.2184 0.7725
vn -0.5631 -0.0666 0.8237
vn -0.5953 -0.2128 0.7748
vn -0.5458 0.0000 0.8379
vn -0.5591 -0.0505 0.8275
vn -0.5591 0.0505 0.8275
vn -0.5631 0.0666 0.8237
vn -0.5963 0.2184 0.7725
vn -0.7652 -0.6090 0.2087
vn -0.8263 -0.5373 0.1691
vn -0.9763 0.2149 0.0235
vn -0.9779 0.2081 0.0208
vn -0.9021 -0.4175 0.1096
vn -0.9227 -0.3748 0.0900
vn -0.9227 0.3748 0.0900
vn -0.9021 0.4175 0.1096
vn -0.9763 -0.2149 0.0235
vn -0.9779 -0.2081 0.0208
vn -0.8263 0.5373 0.1691
vn -0.7652 0.6090 0.2087
vn -0.9974 -0.0649 -0.0316
vn -0.9981 -0.0497 -0.0366
vn -0.6852 0.6830 0.2530
vn -0.6267 0.7263 0.2825
vn -0.6115 0.6856 0.3950
vn -0.6228 0.6119 0.4875
vn -0.6266 0.5431 0.5589
vn -0.6230 0.4224 0.6584
vn -0.6194 0.3812 0.6863
vn -0.5953 0.2128 0.7748
vn -0.6014 0.7265 0.3324
vn 0.6847 -0.3168 -0.6564
vn 0.6648 -0.1808 -0.7248
vn 0.6883 -0.3541 -0.6331
vn 0.6376 -0.0555 -0.7684
vn 0.6639 -0.1760 -0.7268
vn 0.6234 0.0000 -0.7819
vn 0.6343 -0.0415 -0.7720
vn 0.6343 0.0415 -0.7720
vn 0.6376 0.0555 -0.7684
vn 0.6648 0.1808 -0.7248
vn 0.6847 0.3168 -0.6564
vn 0.6639 0.1760 -0.7268
vn 0.6931 0.4590 -0.5558
vn 0.6883 0.3541 -0.6331
vn 0.6829 0.5971 -0.4208
vn 0.6910 0.5275 -0.4942
vn 0.6946 0.6432 -0.3221
vn 0.7483 0.5943 -0.2946
vn 0.8111 0.5245 -0.2589
vn 0.8628 0.4533 -0.2239
vn 0.9203 0.3494 -0.1762
vn 0.6931 -0.4590 -0.5558
vn 0.6910 -0.5275 -0.4942
vn 0.6829 -0.5971 -0.4208
vn 0.6740 -0.6434 -0.3629
vn 0.6946 -0.6432 -0.3221
vn 0.7483 -0.5943 -0.2946
vn 0.8111 -0.5245 -0.2589
vn 0.8628 -0.4533 -0.2239
vn 0.9203 -0.3494 -0.1762
vn 0.9370 -0.3109 -0.1595
vn 0.9991 0.0000 -0.0413
vn 0.9976 0.0408 -0.0553
vn 0.9968 0.0539 -0.0597
vn 0.9784 -0.1776 -0.1056
vn 0.9797 -0.1717 -0.1034
vn 0.9784 0.1776 -0.1056
vn 0.9797 0.1717 -0.1034
vn 0.9968 -0.0539 -0.0597
vn 0.9976 -0.0408 -0.0553
vn 0.9370 0.3109 -0.1595
vn 0.6740 0.6434 -0.3629
vn -0.4427 0.1209 -0.8885
vn -0.4460 0.0000 -0.8950
vn -0.4427 -0.1209 -0.8885
vn 0.1429 -0.9473 0.2867
vn 0.2823 -0.7742 0.5665
vn 0.1427 -0.9474 0.2865
vn 0.2824 -0.7741 0.5667
vn 0.3981 -0.4510 0.7989
vn 0.3981 -0.4508 0.7989
vn 0.4427 -0.1209 0.8885
vn 0.4460 0.0000 0.8950
vn 0.4427 0.1209 0.8885
vn 0.3981 0.4508 0.7989
vn -0.1427 0.9474 -0.2865
vn -0.0354 0.9968 -0.0710
vn -0.0353 0.9969 -0.0709
vn 0.2824 0.7741 0.5667
vn 0.3981 0.4510 0.7989
vn 0.1429 0.9473 0.2867
vn 0.2823 0.7742 0.5665
vn 0.0354 0.9968 0.0710
vn 0.1427 0.9474 0.2865
vn 0.0353 0.9969 0.0709
vn 0.0354 -0.9968 0.0710
vn 0.0353 -0.9969 0.0709
vn -0.0353 -0.9969 -0.0709
vn -0.2823 0.7742 -0.5665
vn -0.1429 0.9473 -0.2867
vn -0.3981 0.4510 -0.7989
vn -0.2824 0.7741 -0.5667
vn -0.1429 -0.9473 -0.2867
vn -0.2823 -0.7742 -0.5665
vn -0.1427 -0.9474 -0.2865
vn -0.0354 -0.9968 -0.0710
vn -0.3981 -0.4508 -0.7989
vn -0.3981 -0.4510 -0.7989
vn -0.2824 -0.7741 -0.5667
vn -0.3981 0.4508 -0.7989
usemtl Hull
s 1
f 5/1/1 3/2/1 35/3/1
f 20/4/2 2/5/2 19/6/2
f 12/7/3 19/8/3 2/9/3
f 58/10/4 5/11/4 35/12/4
f 4/13/5 20/14/5 29/15/5
f 21/16/6 19/17/6 18/18/6
f 5/19/3 41/20/3 42/21/3
f 58/22/6 18/18/6 36/23/6
f 53/24/5 58/25/5 51/26/5
f 1/27/1 4/28/1 3/2/1
f 5/1/1 1/27/1 3/2/1
f 20/4/2 4/29/2 2/5/2
f 2/9/3 1/30/3 7/31/3
f 1/30/3 6/32/3 7/31/3
f 17/33/3 18/34/3 16/35/3
f 16/35/3 18/34/3 19/8/3
f 2/9/3 7/31/3 8/36/3
f 2/9/3 8/36/3 9/37/3
f 15/38/3 16/35/3 19/8/3
f 14/39/3 15/38/3 19/8/3
f 2/9/3 9/37/3 10/40/3
f 2/9/3 10/40/3 11/41/3
f 13/42/3 14/39/3 19/8/3
f 2/9/3 11/41/3 12/7/3
f 12/7/3 13/42/3 19/8/3
f 58/10/4 36/43/4 5/11/4
f 34/44/5 3/45/5 33/46/5
f 20/14/5 21/47/5 23/48/5
f 21/47/5 22/49/5 23/48/5
f 33/46/5 3/45/5 4/13/5
f 32/50/5 33/46/5 4/13/5
f 20/14/5 23/48/5 24/51/5
f 20/14/5 24/51/5 25/52/5
f 31/53/5 32/50/5 4/13/5
f 30/54/5 31/53/5 4/13/5
f 20/14/5 25/52/5 26/55/5
f 20/14/5 26/55/5 27/56/5
f 29/15/5 30/54/5 4/13/5
f 20/14/5 27/56/5 29/15/5
f 21/16/6 20/57/6 19/17/6
f 36/58/3 18/34/3 37/59/3
f 18/34/3 17/33/3 37/59/3
f 6/32/3 1/30/3 46/60/3
f 46/60/3 1/30/3 5/19/3
f 36/58/3 37/59/3 38/61/3
f 36/58/3 38/61/3 39/62/3
f 45/63/3 46/60/3 5/19/3
f 44/64/3 45/63/3 5/19/3
f 36/58/3 39/62/3 40/65/3
f 36/58/3 40/65/3 41/20/3
f 43/66/3 44/64/3 5/19/3
f 36/58/3 41/20/3 5/19/3
f 42/21/3 43/66/3 5/19/3
f 58/22/6 21/16/6 18/18/6
f 35/67/5 3/45/5 47/68/5
f 3/45/5 34/44/5 47/68/5
f 22/49/5 21/47/5 57/69/5
f 57/69/5 21/47/5 58/25/5
f 35/67/5 47/68/5 48/70/5
f 35/67/5 48/70/5 49/71/5
f 56/72/5 57/69/5 58/25/5
f 55/73/5 56/72/5 58/25/5
f 35/67/5 49/71/5 50/74/5
f 35/67/5 50/74/5 51/26/5
f 54/75/5 55/73/5 58/25/5
f 35/67/5 51/26/5 58/25/5
f 53/24/5 54/75/5 58/25/5
f 1/27/1 2/76/1 4/28/1
s 2
f 6/77/7 67/78/8 7/79/9
f 41/80/10 86/81/11 42/82/12
f 41/80/10 84/83/13 85/84/14
f 40/85/15 83/86/16 84/83/13
f 39/87/17 82/88/18 83/86/16
f 37/89/19 82/88/18 38/90/20
f 17/91/21 81/92/22 37/89/19
f 17/91/21 52/93/23 28/94/21
f 16/95/24 59/96/25 52/93/23
f 42/82/12 87/97/26 43/98/27
f 7/79/9 66/99/28 8/100/29
f 43/98/27 88/101/30 44/102/31
f 9/103/32 66/99/28 65/104/33
f 44/102/31 89/105/34 45/106/35
f 10/107/36 65/104/33 64/108/37
f 46/109/38 89/105/34 90/110/39
f 11/111/40 64/108/37 63/112/41
f 6/77/7 90/110/39 68/113/7
f 63/112/41 12/114/42 11/111/40
f 12/114/42 61/115/43 13/116/44
f 13/116/44 60/117/45 14/118/46
f 14/118/46 59/96/25 15/119/47
f 6/77/7 68/113/7 67/78/8
f 41/80/10 85/84/14 86/81/11
f 41/80/10 40/85/15 84/83/13
f 40/85/15 39/87/17 83/86/16
f 39/87/17 38/90/20 82/88/18
f 37/89/19 81/92/22 82/88/18
f 17/91/21 28/94/21 81/92/22
f 17/91/21 16/95/24 52/93/23
f 16/95/24 15/119/47 59/96/25
f 42/82/12 86/81/11 87/97/26
f 7/79/9 67/78/8 66/99/28
f 43/98/27 87/97/26 88/101/30
f 9/103/32 8/100/29 66/99/28
f 44/102/31 88/101/30 89/105/34
f 10/107/36 9/103/32 65/104/33
f 46/109/38 45/106/35 89/105/34
f 11/111/40 10/107/36 64/108/37
f 6/77/7 46/109/38 90/110/39
f 63/112/41 62/120/48 12/114/42
f 12/114/42 62/120/48 61/115/43
f 13/116/44 61/115/43 60/117/45
f 14/118/46 60/117/45 59/96/25
s 3
f 25/121/49 71/122/50 72/123/51
f 23/124/52 71/122/50 24/125/53
f 22/126/54 70/127/55 23/124/52
f 22/126/54 100/128/56 69/129/54
f 57/130/57 99/131/58 100/128/56
f 55/132/59 99/131/58 56/133/60
f 54/134/61 98/135/62 55/132/59
f 53/136/63 97/137/64 54/134/61
f 95/138/65 53/136/63 51/139/66
f 51/139/66 94/140/67 95/138/65
f 50/141/68 93/142/69 94/140/67
f 26/143/70 72/123/51 73/144/71
f 27/145/72 73/144/71 74/146/73
f 27/145/72 75/147/74 29/148/75
f 29/148/75 76/149/76 30/150/77
f 30/150/77 77/151/78 31/152/79
f 34/153/80 91/154/81 47/155/82
f 31/152/79 78/156/83 32/157/84
f 47/155/82 92/158/85 48/159/86
f 33/160/87 78/156/83 79/161/88
f 49/162/89 92/158/85 93/142/69
f 34/153/80 79/161/88 80/163/80
f 25/121/49 24/125/53 71/122/50
f 23/124/52 70/127/55 71/122/50
f 22/126/54 69/129/54 70/127/55
f 22/126/54 57/130/57 100/128/56
f 57/130/57 56/133/60 99/131/58
f 55/132/59 98/135/62 99/131/58
f 54/134/61 97/137/64 98/135/62
f 53/136/63 96/164/90 97/137/64
f 95/138/65 96/164/90 53/136/63
f 51/139/66 50/141/68 94/140/67
f 50/141/68 49/162/89 93/142/69
f 26/143/70 25/121/49 72/123/51
f 27/145/72 26/143/70 73/144/71
f 27/145/72 74/146/73 75/147/74
f 29/148/75 75/147/74 76/149/76
f 30/150/77 76/149/76 77/151/78
f 34/153/80 80/163/80 91/154/81
f 31/152/79 77/151/78 78/156/83
f 47/155/82 91/154/81 92/158/85
f 33/160/87 32/157/84 78/156/83
f 49/162/89 48/159/86 92/158/85
f 34/153/80 33/160/87 79/161/88
usemtl GLASS
s off
f 139/165/5 123/166/5 106/167/5
f 121/168/3 116/169/3 135/170/3
f 110/171/5 106/167/5 120/172/5
f 101/173/5 103/174/5 115/175/5
f 107/176/5 111/177/5 115/175/5
f 115/175/5 122/178/5 136/179/5
f 125/180/5 127/181/5 122/178/5
f 134/182/5 122/178/5 127/181/5
f 139/165/5 137/183/5 123/166/5
f 131/184/5 129/185/5 123/166/5
f 123/166/5 120/172/5 106/167/5
f 118/186/5 114/187/5 120/172/5
f 106/167/5 101/173/5 139/165/5
f 107/176/5 115/175/5 103/174/5
f 134/182/5 136/179/5 122/178/5
f 137/183/5 131/184/5 123/166/5
f 120/172/5 114/187/5 110/171/5
f 101/173/5 115/175/5 136/179/5
f 136/179/5 139/165/5 101/173/5
f 102/188/3 105/189/3 140/190/3
f 109/191/3 113/192/3 119/193/3
f 117/194/3 119/193/3 113/192/3
f 124/195/3 130/196/3 132/197/3
f 132/197/3 138/198/3 124/195/3
f 140/190/3 135/170/3 102/188/3
f 133/199/3 128/200/3 121/168/3
f 126/201/3 121/168/3 128/200/3
f 116/169/3 112/202/3 108/203/3
f 108/203/3 104/204/3 116/169/3
f 105/189/3 124/195/3 140/190/3
f 119/193/3 124/195/3 105/189/3
f 138/198/3 140/190/3 124/195/3
f 133/199/3 121/168/3 135/170/3
f 116/169/3 104/204/3 102/188/3
f 109/191/3 119/193/3 105/189/3
f 135/170/3 116/169/3 102/188/3
usemtl Material.001
s 2
f 119/205/91 68/206/92 124/207/93
f 84/208/94 128/209/95 133/210/96
f 83/211/97 126/212/98 128/209/95
f 82/213/99 121/214/100 126/212/98
f 28/215/101 116/216/102 121/214/100
f 59/217/103 116/216/102 52/218/102
f 64/219/104 105/220/105 63/221/106
f 60/222/107 112/223/108 59/217/103
f 61/224/109 108/225/110 60/222/107
f 62/226/111 104/227/112 61/224/109
f 63/221/106 102/228/113 62/226/111
f 85/229/114 133/210/96 135/230/115
f 135/230/115 86/231/116 85/229/114
f 65/232/117 109/233/118 64/219/104
f 66/234/119 113/235/120 65/232/117
f 138/236/121 88/237/122 87/238/123
f 140/239/124 87/238/123 86/231/116
f 130/240/125 90/241/93 89/242/126
f 132/243/127 89/242/126 88/237/122
f 67/244/91 117/245/128 66/234/119
f 90/241/93 124/207/93 68/206/92
f 119/205/91 67/244/91 68/206/92
f 84/208/94 83/211/97 128/209/95
f 83/211/97 82/213/99 126/212/98
f 82/213/99 81/246/100 121/214/100
f 121/214/100 81/246/100 28/215/101
f 28/215/101 52/218/102 116/216/102
f 59/217/103 112/223/108 116/216/102
f 64/219/104 109/233/118 105/220/105
f 60/222/107 108/225/110 112/223/108
f 61/224/109 104/227/112 108/225/110
f 62/226/111 102/228/113 104/227/112
f 63/221/106 105/220/105 102/228/113
f 85/229/114 84/208/94 133/210/96
f 135/230/115 140/239/124 86/231/116
f 65/232/117 113/235/120 109/233/118
f 66/234/119 117/245/128 113/235/120
f 138/236/121 132/243/127 88/237/122
f 140/239/124 138/236/121 87/238/123
f 130/240/125 124/207/93 90/241/93
f 132/243/127 130/240/125 89/242/126
f 67/244/91 119/205/91 117/245/128
s 3
f 115/247/102 69/248/101 122/249/100
f 111/250/103 70/251/102 115/247/102
f 107/252/107 71/253/108 111/250/103
f 80/254/92 120/255/91 123/256/93
f 92/257/125 123/256/93 129/258/126
f 93/259/127 129/258/126 131/260/122
f 94/261/121 131/260/122 137/262/123
f 95/263/124 137/262/123 139/264/116
f 101/265/111 73/266/112 103/267/109
f 103/267/109 72/268/110 107/252/107
f 110/269/104 75/270/105 106/271/106
f 106/271/106 74/272/113 101/265/111
f 114/273/117 76/274/118 110/269/104
f 118/275/119 77/276/120 114/273/117
f 120/255/91 78/277/128 118/275/119
f 139/264/116 96/278/115 95/263/124
f 136/279/114 97/280/96 96/278/115
f 127/281/97 99/282/98 98/283/95
f 134/284/94 98/283/95 97/280/96
f 125/285/99 100/286/100 99/282/98
f 100/286/100 122/249/100 69/248/101
f 115/247/102 70/251/102 69/248/101
f 111/250/103 71/253/108 70/251/102
f 107/252/107 72/268/110 71/253/108
f 123/256/93 91/287/93 80/254/92
f 80/254/92 79/288/91 120/255/91
f 92/257/125 91/287/93 123/256/93
f 93/259/127 92/257/125 129/258/126
f 94/261/121 93/259/127 131/260/122
f 95/263/124 94/261/121 137/262/123
f 101/265/111 74/272/113 73/266/112
f 103/267/109 73/266/112 72/268/110
f 110/269/104 76/274/118 75/270/105
f 106/271/106 75/270/105 74/272/113
f 114/273/117 77/276/120 76/274/118
f 118/275/119 78/277/128 77/276/120
f 120/255/91 79/288/91 78/277/128
f 139/264/116 136/279/114 96/278/115
f 136/279/114 134/284/94 97/280/96
f 127/281/97 125/285/99 99/282/98
f 134/284/94 127/281/97 98/283/95
f 125/285/99 122/249/100 100/286/100
usemtl Material.002
s 4
f 101/289/113 105/290/106 106/291/105
f 103/292/112 102/293/111 101/294/113
f 107/295/110 104/296/109 103/297/112
f 111/298/108 108/299/107 107/300/110
f 115/301/102 112/302/103 111/303/108
f 106/304/105 109/305/104 110/306/118
f 110/307/118 113/308/117 114/309/120
f 114/310/120 117/311/119 118/312/128
f 118/313/128 119/314/91 120/315/91
f 140/316/116 136/317/115 139/318/124
f 138/319/123 139/320/124 137/321/121
f 132/322/122 137/323/121 131/324/127
f 130/325/126 131/326/127 129/327/125
f 124/328/93 129/329/125 123/330/93
f 134/331/96 135/332/114 133/333/94
f 122/334/100 126/335/99 121/336/100
f 125/337/98 128/338/97 126/339/99
f 127/340/95 133/341/94 128/342/97
f 122/343/100 116/344/102 115/345/102
f 124/346/93 120/347/91 119/348/91
f 101/289/113 102/349/111 105/290/106
f 103/292/112 104/350/109 102/293/111
f 107/295/110 108/351/107 104/296/109
f 111/298/108 112/352/103 108/299/107
f 115/301/102 116/353/102 112/302/103
f 106/304/105 105/354/106 109/305/104
f 110/307/118 109/355/104 113/308/117
f 114/310/120 113/356/117 117/311/119
f 118/313/128 117/357/119 119/314/91
f 140/316/116 135/358/114 136/317/115
f 138/319/123 140/359/116 139/320/124
f 132/322/122 138/360/123 137/323/121
f 130/325/126 132/361/122 131/326/127
f 124/328/93 130/362/126 129/329/125
f 134/331/96 136/363/115 135/332/114
f 122/334/100 125/364/98 126/335/99
f 125/337/98 127/365/95 128/338/97
f 127/340/95 134/366/96 133/341/94
f 122/343/100 121/367/100 116/344/102
f 124/346/93 123/368/93 120/347/91
